G04 Layer_Color=2752767*
%FSLAX44Y44*%
%MOMM*%
G71*
G01*
G75*
%ADD85C,0.0508*%
%ADD86C,0.0677*%
D85*
X629158Y41148D02*
Y45212D01*
X633222D01*
Y41148D01*
X629158D01*
X603758D02*
Y45212D01*
X607822D01*
Y41148D01*
X603758D01*
X654558D02*
Y45212D01*
X658622D01*
Y41148D01*
X654558D01*
X578358D02*
Y45212D01*
X582422D01*
Y41148D01*
X578358D01*
X502158D02*
Y45212D01*
X506222D01*
Y41148D01*
X502158D01*
X527558D02*
Y45212D01*
X531622D01*
Y41148D01*
X527558D01*
X552958D02*
Y45212D01*
X557022D01*
Y41148D01*
X552958D01*
X451358D02*
Y45212D01*
X455422D01*
Y41148D01*
X451358D01*
X425958D02*
Y45212D01*
X430022D01*
Y41148D01*
X425958D01*
X400558D02*
Y45212D01*
X404622D01*
Y41148D01*
X400558D01*
X476758D02*
Y45212D01*
X480822D01*
Y41148D01*
X476758D01*
X375158D02*
Y45212D01*
X379222D01*
Y41148D01*
X375158D01*
X476758Y15748D02*
Y19812D01*
X480822D01*
Y15748D01*
X476758D01*
X375158D02*
Y19812D01*
X379222D01*
Y15748D01*
X375158D01*
X400558D02*
Y19812D01*
X404622D01*
Y15748D01*
X400558D01*
X425958D02*
Y19812D01*
X430022D01*
Y15748D01*
X425958D01*
X451358D02*
Y19812D01*
X455422D01*
Y15748D01*
X451358D01*
X552958D02*
Y19812D01*
X557022D01*
Y15748D01*
X552958D01*
X527558D02*
Y19812D01*
X531622D01*
Y15748D01*
X527558D01*
X502158D02*
Y19812D01*
X506222D01*
Y15748D01*
X502158D01*
X578358D02*
Y19812D01*
X582422D01*
Y15748D01*
X578358D01*
X654558D02*
Y19812D01*
X658622D01*
Y15748D01*
X654558D01*
X603758D02*
Y19812D01*
X607822D01*
Y15748D01*
X603758D01*
X629158D02*
Y19812D01*
X633222D01*
Y15748D01*
X629158D01*
X705358D02*
Y19812D01*
X709422D01*
Y15748D01*
X705358D01*
X679958D02*
Y19812D01*
X684022D01*
Y15748D01*
X679958D01*
X730758D02*
Y19812D01*
X734822D01*
Y15748D01*
X730758D01*
Y41148D02*
Y45212D01*
X734822D01*
Y41148D01*
X730758D01*
X679958D02*
Y45212D01*
X684022D01*
Y41148D01*
X679958D01*
X705358D02*
Y45212D01*
X709422D01*
Y41148D01*
X705358D01*
X172212Y26416D02*
Y30480D01*
X176276D01*
Y26416D01*
X172212D01*
X146812D02*
Y30480D01*
X150876D01*
Y26416D01*
X146812D01*
X121412D02*
Y30480D01*
X125476D01*
Y26416D01*
X121412D01*
X823468Y398018D02*
Y402082D01*
X827532D01*
Y398018D01*
X823468D01*
Y296418D02*
Y300482D01*
X827532D01*
Y296418D01*
X823468D01*
Y321818D02*
Y325882D01*
X827532D01*
Y321818D01*
X823468D01*
Y347218D02*
Y351282D01*
X827532D01*
Y347218D01*
X823468D01*
Y372618D02*
Y376682D01*
X827532D01*
Y372618D01*
X823468D01*
X629158Y480568D02*
Y484632D01*
X633222D01*
Y480568D01*
X629158D01*
X603758D02*
Y484632D01*
X607822D01*
Y480568D01*
X603758D01*
X654558D02*
Y484632D01*
X658622D01*
Y480568D01*
X654558D01*
X578358D02*
Y484632D01*
X582422D01*
Y480568D01*
X578358D01*
X502158D02*
Y484632D01*
X506222D01*
Y480568D01*
X502158D01*
X527558D02*
Y484632D01*
X531622D01*
Y480568D01*
X527558D01*
X552958D02*
Y484632D01*
X557022D01*
Y480568D01*
X552958D01*
X451358D02*
Y484632D01*
X455422D01*
Y480568D01*
X451358D01*
X425958D02*
Y484632D01*
X430022D01*
Y480568D01*
X425958D01*
X400558D02*
Y484632D01*
X404622D01*
Y480568D01*
X400558D01*
X476758D02*
Y484632D01*
X480822D01*
Y480568D01*
X476758D01*
X375158D02*
Y484632D01*
X379222D01*
Y480568D01*
X375158D01*
X476758Y455168D02*
Y459232D01*
X480822D01*
Y455168D01*
X476758D01*
X375158D02*
Y459232D01*
X379222D01*
Y455168D01*
X375158D01*
X400558D02*
Y459232D01*
X404622D01*
Y455168D01*
X400558D01*
X425958D02*
Y459232D01*
X430022D01*
Y455168D01*
X425958D01*
X451358D02*
Y459232D01*
X455422D01*
Y455168D01*
X451358D01*
X552958D02*
Y459232D01*
X557022D01*
Y455168D01*
X552958D01*
X527558D02*
Y459232D01*
X531622D01*
Y455168D01*
X527558D01*
X502158D02*
Y459232D01*
X506222D01*
Y455168D01*
X502158D01*
X578358D02*
Y459232D01*
X582422D01*
Y455168D01*
X578358D01*
X654558D02*
Y459232D01*
X658622D01*
Y455168D01*
X654558D01*
X603758D02*
Y459232D01*
X607822D01*
Y455168D01*
X603758D01*
X629158D02*
Y459232D01*
X633222D01*
Y455168D01*
X629158D01*
X705358D02*
Y459232D01*
X709422D01*
Y455168D01*
X705358D01*
X679958D02*
Y459232D01*
X684022D01*
Y455168D01*
X679958D01*
X730758D02*
Y459232D01*
X734822D01*
Y455168D01*
X730758D01*
Y480568D02*
Y484632D01*
X734822D01*
Y480568D01*
X730758D01*
X679958D02*
Y484632D01*
X684022D01*
Y480568D01*
X679958D01*
X705358D02*
Y484632D01*
X709422D01*
Y480568D01*
X705358D01*
X98298Y467868D02*
Y471932D01*
X102362D01*
Y467868D01*
X98298D01*
X123698D02*
Y471932D01*
X127762D01*
Y467868D01*
X123698D01*
X149098D02*
Y471932D01*
X153162D01*
Y467868D01*
X149098D01*
X174498D02*
Y471932D01*
X178562D01*
Y467868D01*
X174498D01*
X260858Y382778D02*
Y386842D01*
X264922D01*
Y382778D01*
X260858D01*
X286258D02*
Y386842D01*
X290322D01*
Y382778D01*
X286258D01*
X311658D02*
Y386842D01*
X315722D01*
Y382778D01*
X311658D01*
X337058D02*
Y386842D01*
X341122D01*
Y382778D01*
X337058D01*
X53420Y372328D02*
X51388Y376392D01*
X55452D01*
X53420Y372328D01*
Y314528D02*
X51388Y318592D01*
X55452D01*
X53420Y314528D01*
X58420Y386628D02*
X59436Y387644D01*
X60452D01*
X59436Y388660D01*
X60452Y389676D01*
X59436D01*
X58420Y390692D01*
X57404Y389676D01*
X56388D01*
X57404Y388660D01*
X56388Y387644D01*
X57404D01*
X58420Y386628D01*
X14588D02*
X15604Y388660D01*
X14588Y390692D01*
X16620Y389676D01*
X18652Y390692D01*
X17636Y388660D01*
X18652Y386628D01*
X16620Y387644D01*
X14588Y386628D01*
X58420Y300228D02*
X59436Y301244D01*
X60452D01*
X59436Y302260D01*
X60452Y303276D01*
X59436D01*
X58420Y304292D01*
X57404Y303276D01*
X56388D01*
X57404Y302260D01*
X56388Y301244D01*
X57404D01*
X58420Y300228D01*
X14588D02*
X15604Y302260D01*
X14588Y304292D01*
X16620Y303276D01*
X18652Y304292D01*
X17636Y302260D01*
X18652Y300228D01*
X16620Y301244D01*
X14588Y300228D01*
X244094Y338074D02*
Y337058D01*
X246126D01*
Y338074D01*
X247142D01*
Y340106D01*
X246126D01*
Y341122D01*
X244094D01*
Y340106D01*
X243078D01*
Y338074D01*
X244094D01*
X267169Y325374D02*
Y324358D01*
X269202D01*
Y325374D01*
X270217D01*
Y327406D01*
X269202D01*
Y328422D01*
X267169D01*
Y327406D01*
X266154D01*
Y325374D01*
X267169D01*
X239014Y332994D02*
Y331978D01*
X241046D01*
Y332994D01*
X242062D01*
Y335026D01*
X241046D01*
Y336042D01*
X239014D01*
Y335026D01*
X237998D01*
Y332994D01*
X239014D01*
X178054Y367284D02*
Y366268D01*
X180086D01*
Y367284D01*
X181102D01*
Y369316D01*
X180086D01*
Y370332D01*
X178054D01*
Y369316D01*
X177038D01*
Y367284D01*
X178054D01*
X426974Y407924D02*
Y406908D01*
X429006D01*
Y407924D01*
X430022D01*
Y409956D01*
X429006D01*
Y410972D01*
X426974D01*
Y409956D01*
X425958D01*
Y407924D01*
X426974D01*
X437191Y132334D02*
Y131318D01*
X439222D01*
Y132334D01*
X440238D01*
Y134366D01*
X439222D01*
Y135382D01*
X437191D01*
Y134366D01*
X436175D01*
Y132334D01*
X437191D01*
X430840D02*
Y131318D01*
X432873D01*
Y132334D01*
X433889D01*
Y134366D01*
X432873D01*
Y135382D01*
X430840D01*
Y134366D01*
X429824D01*
Y132334D01*
X430840D01*
X437191Y125984D02*
Y124968D01*
X439222D01*
Y125984D01*
X440238D01*
Y128016D01*
X439222D01*
Y129032D01*
X437191D01*
Y128016D01*
X436175D01*
Y125984D01*
X437191D01*
X430840D02*
Y124968D01*
X432873D01*
Y125984D01*
X433889D01*
Y128016D01*
X432873D01*
Y129032D01*
X430840D01*
Y128016D01*
X429824D01*
Y125984D01*
X430840D01*
X305054Y72644D02*
Y71628D01*
X307086D01*
Y72644D01*
X308102D01*
Y74676D01*
X307086D01*
Y75692D01*
X305054D01*
Y74676D01*
X304038D01*
Y72644D01*
X305054D01*
X237744Y288544D02*
Y287528D01*
X239776D01*
Y288544D01*
X240792D01*
Y290576D01*
X239776D01*
Y291592D01*
X237744D01*
Y290576D01*
X236728D01*
Y288544D01*
X237744D01*
X244094D02*
Y287528D01*
X246126D01*
Y288544D01*
X247142D01*
Y290576D01*
X246126D01*
Y291592D01*
X244094D01*
Y290576D01*
X243078D01*
Y288544D01*
X244094D01*
X237744Y294894D02*
Y293878D01*
X239776D01*
Y294894D01*
X240792D01*
Y296926D01*
X239776D01*
Y297942D01*
X237744D01*
Y296926D01*
X236728D01*
Y294894D01*
X237744D01*
X244094D02*
Y293878D01*
X246126D01*
Y294894D01*
X247142D01*
Y296926D01*
X246126D01*
Y297942D01*
X244094D01*
Y296926D01*
X243078D01*
Y294894D01*
X244094D01*
X185674Y180594D02*
Y179578D01*
X187706D01*
Y180594D01*
X188722D01*
Y182626D01*
X187706D01*
Y183642D01*
X185674D01*
Y182626D01*
X184658D01*
Y180594D01*
X185674D01*
X123444Y291084D02*
Y290068D01*
X125476D01*
Y291084D01*
X126492D01*
Y293116D01*
X125476D01*
Y294132D01*
X123444D01*
Y293116D01*
X122428D01*
Y291084D01*
X123444D01*
X813054Y216154D02*
Y215138D01*
X815086D01*
Y216154D01*
X816102D01*
Y218186D01*
X815086D01*
Y219202D01*
X813054D01*
Y218186D01*
X812038D01*
Y216154D01*
X813054D01*
X759714Y67564D02*
Y66548D01*
X761746D01*
Y67564D01*
X762762D01*
Y69596D01*
X761746D01*
Y70612D01*
X759714D01*
Y69596D01*
X758698D01*
Y67564D01*
X759714D01*
X416814Y78994D02*
Y77978D01*
X418846D01*
Y78994D01*
X419862D01*
Y81026D01*
X418846D01*
Y82042D01*
X416814D01*
Y81026D01*
X415798D01*
Y78994D01*
X416814D01*
X109474Y89154D02*
Y88138D01*
X111506D01*
Y89154D01*
X112522D01*
Y91186D01*
X111506D01*
Y92202D01*
X109474D01*
Y91186D01*
X108458D01*
Y89154D01*
X109474D01*
X665734Y317754D02*
Y316738D01*
X667766D01*
Y317754D01*
X668782D01*
Y319786D01*
X667766D01*
Y320802D01*
X665734D01*
Y319786D01*
X664718D01*
Y317754D01*
X665734D01*
X678434Y302514D02*
Y301498D01*
X680466D01*
Y302514D01*
X681482D01*
Y304546D01*
X680466D01*
Y305562D01*
X678434D01*
Y304546D01*
X677418D01*
Y302514D01*
X678434D01*
X698754Y325374D02*
Y324358D01*
X700786D01*
Y325374D01*
X701802D01*
Y327406D01*
X700786D01*
Y328422D01*
X698754D01*
Y327406D01*
X697738D01*
Y325374D01*
X698754D01*
X715264Y330454D02*
Y329438D01*
X717296D01*
Y330454D01*
X718312D01*
Y332486D01*
X717296D01*
Y333502D01*
X715264D01*
Y332486D01*
X714248D01*
Y330454D01*
X715264D01*
X273304Y329692D02*
Y328675D01*
X275336D01*
Y329692D01*
X276352D01*
Y331724D01*
X275336D01*
Y332739D01*
X273304D01*
Y331724D01*
X272288D01*
Y329692D01*
X273304D01*
X139954Y358394D02*
Y357378D01*
X141986D01*
Y358394D01*
X143002D01*
Y360426D01*
X141986D01*
Y361442D01*
X139954D01*
Y360426D01*
X138938D01*
Y358394D01*
X139954D01*
X155194D02*
Y357378D01*
X157226D01*
Y358394D01*
X158242D01*
Y360426D01*
X157226D01*
Y361442D01*
X155194D01*
Y360426D01*
X154178D01*
Y358394D01*
X155194D01*
X129794Y278384D02*
Y277368D01*
X131826D01*
Y278384D01*
X132842D01*
Y280416D01*
X131826D01*
Y281432D01*
X129794D01*
Y280416D01*
X128778D01*
Y278384D01*
X129794D01*
X557434Y325374D02*
Y324358D01*
X559466D01*
Y325374D01*
X560482D01*
Y327406D01*
X559466D01*
Y328422D01*
X557434D01*
Y327406D01*
X556418D01*
Y325374D01*
X557434D01*
X26924Y316484D02*
Y315468D01*
X28956D01*
Y316484D01*
X29972D01*
Y318516D01*
X28956D01*
Y319532D01*
X26924D01*
Y318516D01*
X25908D01*
Y316484D01*
X26924D01*
X33274D02*
Y315468D01*
X35306D01*
Y316484D01*
X36322D01*
Y318516D01*
X35306D01*
Y319532D01*
X33274D01*
Y318516D01*
X32258D01*
Y316484D01*
X33274D01*
X26924Y322834D02*
Y321818D01*
X28956D01*
Y322834D01*
X29972D01*
Y324866D01*
X28956D01*
Y325882D01*
X26924D01*
Y324866D01*
X25908D01*
Y322834D01*
X26924D01*
X33274D02*
Y321818D01*
X35306D01*
Y322834D01*
X36322D01*
Y324866D01*
X35306D01*
Y325882D01*
X33274D01*
Y324866D01*
X32258D01*
Y322834D01*
X33274D01*
X189484Y341884D02*
Y340868D01*
X191516D01*
Y341884D01*
X192532D01*
Y343916D01*
X191516D01*
Y344932D01*
X189484D01*
Y343916D01*
X188468D01*
Y341884D01*
X189484D01*
Y346964D02*
Y345948D01*
X191516D01*
Y346964D01*
X192532D01*
Y348996D01*
X191516D01*
Y350012D01*
X189484D01*
Y348996D01*
X188468D01*
Y346964D01*
X189484D01*
X818984Y486484D02*
Y485468D01*
X821016D01*
Y486484D01*
X822032D01*
Y488516D01*
X821016D01*
Y489532D01*
X818984D01*
Y488516D01*
X817968D01*
Y486484D01*
X818984D01*
X806610Y481358D02*
Y480342D01*
X808642D01*
Y481358D01*
X809658D01*
Y483390D01*
X808642D01*
Y484406D01*
X806610D01*
Y483390D01*
X805594D01*
Y481358D01*
X806610D01*
X801484Y468984D02*
Y467968D01*
X803516D01*
Y468984D01*
X804532D01*
Y471016D01*
X803516D01*
Y472032D01*
X801484D01*
Y471016D01*
X800468D01*
Y468984D01*
X801484D01*
X806610Y456610D02*
Y455594D01*
X808642D01*
Y456610D01*
X809658D01*
Y458642D01*
X808642D01*
Y459658D01*
X806610D01*
Y458642D01*
X805594D01*
Y456610D01*
X806610D01*
X818984Y451484D02*
Y450468D01*
X821016D01*
Y451484D01*
X822032D01*
Y453516D01*
X821016D01*
Y454532D01*
X818984D01*
Y453516D01*
X817968D01*
Y451484D01*
X818984D01*
X831358Y456610D02*
Y455594D01*
X833390D01*
Y456610D01*
X834406D01*
Y458642D01*
X833390D01*
Y459658D01*
X831358D01*
Y458642D01*
X830342D01*
Y456610D01*
X831358D01*
X836484Y468984D02*
Y467968D01*
X838516D01*
Y468984D01*
X839532D01*
Y471016D01*
X838516D01*
Y472032D01*
X836484D01*
Y471016D01*
X835468D01*
Y468984D01*
X836484D01*
X831358Y481358D02*
Y480342D01*
X833390D01*
Y481358D01*
X834406D01*
Y483390D01*
X833390D01*
Y484406D01*
X831358D01*
Y483390D01*
X830342D01*
Y481358D01*
X831358D01*
X818984Y46484D02*
Y45468D01*
X821016D01*
Y46484D01*
X822032D01*
Y48516D01*
X821016D01*
Y49532D01*
X818984D01*
Y48516D01*
X817968D01*
Y46484D01*
X818984D01*
X806610Y41358D02*
Y40342D01*
X808642D01*
Y41358D01*
X809658D01*
Y43390D01*
X808642D01*
Y44406D01*
X806610D01*
Y43390D01*
X805594D01*
Y41358D01*
X806610D01*
X801484Y28984D02*
Y27968D01*
X803516D01*
Y28984D01*
X804532D01*
Y31016D01*
X803516D01*
Y32032D01*
X801484D01*
Y31016D01*
X800468D01*
Y28984D01*
X801484D01*
X806610Y16610D02*
Y15594D01*
X808642D01*
Y16610D01*
X809658D01*
Y18642D01*
X808642D01*
Y19658D01*
X806610D01*
Y18642D01*
X805594D01*
Y16610D01*
X806610D01*
X818984Y11484D02*
Y10468D01*
X821016D01*
Y11484D01*
X822032D01*
Y13516D01*
X821016D01*
Y14532D01*
X818984D01*
Y13516D01*
X817968D01*
Y11484D01*
X818984D01*
X831358Y16610D02*
Y15594D01*
X833390D01*
Y16610D01*
X834406D01*
Y18642D01*
X833390D01*
Y19658D01*
X831358D01*
Y18642D01*
X830342D01*
Y16610D01*
X831358D01*
X836484Y28984D02*
Y27968D01*
X838516D01*
Y28984D01*
X839532D01*
Y31016D01*
X838516D01*
Y32032D01*
X836484D01*
Y31016D01*
X835468D01*
Y28984D01*
X836484D01*
X831358Y41358D02*
Y40342D01*
X833390D01*
Y41358D01*
X834406D01*
Y43390D01*
X833390D01*
Y44406D01*
X831358D01*
Y43390D01*
X830342D01*
Y41358D01*
X831358D01*
X28984Y46484D02*
Y45468D01*
X31016D01*
Y46484D01*
X32032D01*
Y48516D01*
X31016D01*
Y49532D01*
X28984D01*
Y48516D01*
X27968D01*
Y46484D01*
X28984D01*
X16610Y41358D02*
Y40342D01*
X18642D01*
Y41358D01*
X19658D01*
Y43390D01*
X18642D01*
Y44406D01*
X16610D01*
Y43390D01*
X15594D01*
Y41358D01*
X16610D01*
X11484Y28984D02*
Y27968D01*
X13516D01*
Y28984D01*
X14532D01*
Y31016D01*
X13516D01*
Y32032D01*
X11484D01*
Y31016D01*
X10468D01*
Y28984D01*
X11484D01*
X16610Y16610D02*
Y15594D01*
X18642D01*
Y16610D01*
X19658D01*
Y18642D01*
X18642D01*
Y19658D01*
X16610D01*
Y18642D01*
X15594D01*
Y16610D01*
X16610D01*
X28984Y11484D02*
Y10468D01*
X31016D01*
Y11484D01*
X32032D01*
Y13516D01*
X31016D01*
Y14532D01*
X28984D01*
Y13516D01*
X27968D01*
Y11484D01*
X28984D01*
X41358Y16610D02*
Y15594D01*
X43390D01*
Y16610D01*
X44406D01*
Y18642D01*
X43390D01*
Y19658D01*
X41358D01*
Y18642D01*
X40342D01*
Y16610D01*
X41358D01*
X46484Y28984D02*
Y27968D01*
X48516D01*
Y28984D01*
X49532D01*
Y31016D01*
X48516D01*
Y32032D01*
X46484D01*
Y31016D01*
X45468D01*
Y28984D01*
X46484D01*
X41358Y41358D02*
Y40342D01*
X43390D01*
Y41358D01*
X44406D01*
Y43390D01*
X43390D01*
Y44406D01*
X41358D01*
Y43390D01*
X40342D01*
Y41358D01*
X41358D01*
X28984Y486484D02*
Y485468D01*
X31016D01*
Y486484D01*
X32032D01*
Y488516D01*
X31016D01*
Y489532D01*
X28984D01*
Y488516D01*
X27968D01*
Y486484D01*
X28984D01*
X16610Y481358D02*
Y480342D01*
X18642D01*
Y481358D01*
X19658D01*
Y483390D01*
X18642D01*
Y484406D01*
X16610D01*
Y483390D01*
X15594D01*
Y481358D01*
X16610D01*
X11484Y468984D02*
Y467968D01*
X13516D01*
Y468984D01*
X14532D01*
Y471016D01*
X13516D01*
Y472032D01*
X11484D01*
Y471016D01*
X10468D01*
Y468984D01*
X11484D01*
X16610Y456610D02*
Y455594D01*
X18642D01*
Y456610D01*
X19658D01*
Y458642D01*
X18642D01*
Y459658D01*
X16610D01*
Y458642D01*
X15594D01*
Y456610D01*
X16610D01*
X28984Y451484D02*
Y450468D01*
X31016D01*
Y451484D01*
X32032D01*
Y453516D01*
X31016D01*
Y454532D01*
X28984D01*
Y453516D01*
X27968D01*
Y451484D01*
X28984D01*
X41358Y456610D02*
Y455594D01*
X43390D01*
Y456610D01*
X44406D01*
Y458642D01*
X43390D01*
Y459658D01*
X41358D01*
Y458642D01*
X40342D01*
Y456610D01*
X41358D01*
X46484Y468984D02*
Y467968D01*
X48516D01*
Y468984D01*
X49532D01*
Y471016D01*
X48516D01*
Y472032D01*
X46484D01*
Y471016D01*
X45468D01*
Y468984D01*
X46484D01*
X41358Y481358D02*
Y480342D01*
X43390D01*
Y481358D01*
X44406D01*
Y483390D01*
X43390D01*
Y484406D01*
X41358D01*
Y483390D01*
X40342D01*
Y481358D01*
X41358D01*
X193294Y444754D02*
Y443738D01*
X195326D01*
Y444754D01*
X196342D01*
Y446786D01*
X195326D01*
Y447802D01*
X193294D01*
Y446786D01*
X192278D01*
Y444754D01*
X193294D01*
X199644Y438404D02*
Y437388D01*
X201676D01*
Y438404D01*
X202692D01*
Y440436D01*
X201676D01*
Y441452D01*
X199644D01*
Y440436D01*
X198628D01*
Y438404D01*
X199644D01*
X193294D02*
Y437388D01*
X195326D01*
Y438404D01*
X196342D01*
Y440436D01*
X195326D01*
Y441452D01*
X193294D01*
Y440436D01*
X192278D01*
Y438404D01*
X193294D01*
X199644Y444754D02*
Y443738D01*
X201676D01*
Y444754D01*
X202692D01*
Y446786D01*
X201676D01*
Y447802D01*
X199644D01*
Y446786D01*
X198628D01*
Y444754D01*
X199644D01*
X246634Y396494D02*
Y395478D01*
X248666D01*
Y396494D01*
X249682D01*
Y398526D01*
X248666D01*
Y399542D01*
X246634D01*
Y398526D01*
X245618D01*
Y396494D01*
X246634D01*
Y402844D02*
Y401828D01*
X248666D01*
Y402844D01*
X249682D01*
Y404876D01*
X248666D01*
Y405892D01*
X246634D01*
Y404876D01*
X245618D01*
Y402844D01*
X246634D01*
X208534Y367284D02*
Y366268D01*
X210566D01*
Y367284D01*
X211582D01*
Y369316D01*
X210566D01*
Y370332D01*
X208534D01*
Y369316D01*
X207518D01*
Y367284D01*
X208534D01*
Y395224D02*
Y394208D01*
X210566D01*
Y395224D01*
X211582D01*
Y397256D01*
X210566D01*
Y398272D01*
X208534D01*
Y397256D01*
X207518D01*
Y395224D01*
X208534D01*
X580644Y171704D02*
Y170688D01*
X582676D01*
Y171704D01*
X583692D01*
Y173736D01*
X582676D01*
Y174752D01*
X580644D01*
Y173736D01*
X579628D01*
Y171704D01*
X580644D01*
X542544Y99314D02*
Y98298D01*
X544576D01*
Y99314D01*
X545592D01*
Y101346D01*
X544576D01*
Y102362D01*
X542544D01*
Y101346D01*
X541528D01*
Y99314D01*
X542544D01*
X566674Y123444D02*
Y122428D01*
X568706D01*
Y123444D01*
X569722D01*
Y125476D01*
X568706D01*
Y126492D01*
X566674D01*
Y125476D01*
X565658D01*
Y123444D01*
X566674D01*
X33274Y373634D02*
Y372618D01*
X35306D01*
Y373634D01*
X36322D01*
Y375666D01*
X35306D01*
Y376682D01*
X33274D01*
Y375666D01*
X32258D01*
Y373634D01*
X33274D01*
X26924D02*
Y372618D01*
X28956D01*
Y373634D01*
X29972D01*
Y375666D01*
X28956D01*
Y376682D01*
X26924D01*
Y375666D01*
X25908D01*
Y373634D01*
X26924D01*
X33274Y367284D02*
Y366268D01*
X35306D01*
Y367284D01*
X36322D01*
Y369316D01*
X35306D01*
Y370332D01*
X33274D01*
Y369316D01*
X32258D01*
Y367284D01*
X33274D01*
X26924D02*
Y366268D01*
X28956D01*
Y367284D01*
X29972D01*
Y369316D01*
X28956D01*
Y370332D01*
X26924D01*
Y369316D01*
X25908D01*
Y367284D01*
X26924D01*
X346964Y40894D02*
Y39878D01*
X348996D01*
Y40894D01*
X350012D01*
Y42926D01*
X348996D01*
Y43942D01*
X346964D01*
Y42926D01*
X345948D01*
Y40894D01*
X346964D01*
X340614D02*
Y39878D01*
X342646D01*
Y40894D01*
X343662D01*
Y42926D01*
X342646D01*
Y43942D01*
X340614D01*
Y42926D01*
X339598D01*
Y40894D01*
X340614D01*
X346964Y34544D02*
Y33528D01*
X348996D01*
Y34544D01*
X350012D01*
Y36576D01*
X348996D01*
Y37592D01*
X346964D01*
Y36576D01*
X345948D01*
Y34544D01*
X346964D01*
X340614D02*
Y33528D01*
X342646D01*
Y34544D01*
X343662D01*
Y36576D01*
X342646D01*
Y37592D01*
X340614D01*
Y36576D01*
X339598D01*
Y34544D01*
X340614D01*
X411734Y301244D02*
Y300228D01*
X413766D01*
Y301244D01*
X414782D01*
Y303276D01*
X413766D01*
Y304292D01*
X411734D01*
Y303276D01*
X410718D01*
Y301244D01*
X411734D01*
X405384D02*
Y300228D01*
X407416D01*
Y301244D01*
X408432D01*
Y303276D01*
X407416D01*
Y304292D01*
X405384D01*
Y303276D01*
X404368D01*
Y301244D01*
X405384D01*
X411734Y294894D02*
Y293878D01*
X413766D01*
Y294894D01*
X414782D01*
Y296926D01*
X413766D01*
Y297942D01*
X411734D01*
Y296926D01*
X410718D01*
Y294894D01*
X411734D01*
X405384D02*
Y293878D01*
X407416D01*
Y294894D01*
X408432D01*
Y296926D01*
X407416D01*
Y297942D01*
X405384D01*
Y296926D01*
X404368D01*
Y294894D01*
X405384D01*
X758444Y284734D02*
Y283718D01*
X760476D01*
Y284734D01*
X761492D01*
Y286766D01*
X760476D01*
Y287782D01*
X758444D01*
Y286766D01*
X757428D01*
Y284734D01*
X758444D01*
X752094D02*
Y283718D01*
X754126D01*
Y284734D01*
X755142D01*
Y286766D01*
X754126D01*
Y287782D01*
X752094D01*
Y286766D01*
X751078D01*
Y284734D01*
X752094D01*
X758444Y278384D02*
Y277368D01*
X760476D01*
Y278384D01*
X761492D01*
Y280416D01*
X760476D01*
Y281432D01*
X758444D01*
Y280416D01*
X757428D01*
Y278384D01*
X758444D01*
X752094D02*
Y277368D01*
X754126D01*
Y278384D01*
X755142D01*
Y280416D01*
X754126D01*
Y281432D01*
X752094D01*
Y280416D01*
X751078D01*
Y278384D01*
X752094D01*
X752150Y104394D02*
Y103378D01*
X754183D01*
Y104394D01*
X755199D01*
Y106426D01*
X754183D01*
Y107442D01*
X752150D01*
Y106426D01*
X751134D01*
Y104394D01*
X752150D01*
X745800D02*
Y103378D01*
X747832D01*
Y104394D01*
X748848D01*
Y106426D01*
X747832D01*
Y107442D01*
X745800D01*
Y106426D01*
X744784D01*
Y104394D01*
X745800D01*
X752150Y98044D02*
Y97028D01*
X754183D01*
Y98044D01*
X755199D01*
Y100076D01*
X754183D01*
Y101092D01*
X752150D01*
Y100076D01*
X751134D01*
Y98044D01*
X752150D01*
X745800D02*
Y97028D01*
X747832D01*
Y98044D01*
X748848D01*
Y100076D01*
X747832D01*
Y101092D01*
X745800D01*
Y100076D01*
X744784D01*
Y98044D01*
X745800D01*
X609854Y367284D02*
Y366268D01*
X611886D01*
Y367284D01*
X612902D01*
Y369316D01*
X611886D01*
Y370332D01*
X609854D01*
Y369316D01*
X608838D01*
Y367284D01*
X609854D01*
X603504D02*
Y366268D01*
X605536D01*
Y367284D01*
X606552D01*
Y369316D01*
X605536D01*
Y370332D01*
X603504D01*
Y369316D01*
X602488D01*
Y367284D01*
X603504D01*
X609854Y360934D02*
Y359918D01*
X611886D01*
Y360934D01*
X612902D01*
Y362966D01*
X611886D01*
Y363982D01*
X609854D01*
Y362966D01*
X608838D01*
Y360934D01*
X609854D01*
X603504D02*
Y359918D01*
X605536D01*
Y360934D01*
X606552D01*
Y362966D01*
X605536D01*
Y363982D01*
X603504D01*
Y362966D01*
X602488D01*
Y360934D01*
X603504D01*
X759714Y369824D02*
Y368808D01*
X761746D01*
Y369824D01*
X762762D01*
Y371856D01*
X761746D01*
Y372872D01*
X759714D01*
Y371856D01*
X758698D01*
Y369824D01*
X759714D01*
X753364D02*
Y368808D01*
X755396D01*
Y369824D01*
X756412D01*
Y371856D01*
X755396D01*
Y372872D01*
X753364D01*
Y371856D01*
X752348D01*
Y369824D01*
X753364D01*
X759714Y363474D02*
Y362458D01*
X761746D01*
Y363474D01*
X762762D01*
Y365506D01*
X761746D01*
Y366522D01*
X759714D01*
Y365506D01*
X758698D01*
Y363474D01*
X759714D01*
X753364D02*
Y362458D01*
X755396D01*
Y363474D01*
X756412D01*
Y365506D01*
X755396D01*
Y366522D01*
X753364D01*
Y365506D01*
X752348D01*
Y363474D01*
X753364D01*
X682244Y181864D02*
Y180848D01*
X684276D01*
Y181864D01*
X685292D01*
Y183896D01*
X684276D01*
Y184912D01*
X682244D01*
Y183896D01*
X681228D01*
Y181864D01*
X682244D01*
Y175514D02*
Y174498D01*
X684276D01*
Y175514D01*
X685292D01*
Y177546D01*
X684276D01*
Y178562D01*
X682244D01*
Y177546D01*
X681228D01*
Y175514D01*
X682244D01*
X534924Y90424D02*
Y89408D01*
X536956D01*
Y90424D01*
X537972D01*
Y92456D01*
X536956D01*
Y93472D01*
X534924D01*
Y92456D01*
X533908D01*
Y90424D01*
X534924D01*
X360934Y294894D02*
Y293878D01*
X362966D01*
Y294894D01*
X363982D01*
Y296926D01*
X362966D01*
Y297942D01*
X360934D01*
Y296926D01*
X359918D01*
Y294894D01*
X360934D01*
X367284D02*
Y293878D01*
X369316D01*
Y294894D01*
X370332D01*
Y296926D01*
X369316D01*
Y297942D01*
X367284D01*
Y296926D01*
X366268D01*
Y294894D01*
X367284D01*
X360934Y301244D02*
Y300228D01*
X362966D01*
Y301244D01*
X363982D01*
Y303276D01*
X362966D01*
Y304292D01*
X360934D01*
Y303276D01*
X359918D01*
Y301244D01*
X360934D01*
X367284D02*
Y300228D01*
X369316D01*
Y301244D01*
X370332D01*
Y303276D01*
X369316D01*
Y304292D01*
X367284D01*
Y303276D01*
X366268D01*
Y301244D01*
X367284D01*
X24384Y199644D02*
Y198628D01*
X26416D01*
Y199644D01*
X27432D01*
Y201676D01*
X26416D01*
Y202692D01*
X24384D01*
Y201676D01*
X23368D01*
Y199644D01*
X24384D01*
X30734D02*
Y198628D01*
X32766D01*
Y199644D01*
X33782D01*
Y201676D01*
X32766D01*
Y202692D01*
X30734D01*
Y201676D01*
X29718D01*
Y199644D01*
X30734D01*
X24384Y205994D02*
Y204978D01*
X26416D01*
Y205994D01*
X27432D01*
Y208026D01*
X26416D01*
Y209042D01*
X24384D01*
Y208026D01*
X23368D01*
Y205994D01*
X24384D01*
X30734D02*
Y204978D01*
X32766D01*
Y205994D01*
X33782D01*
Y208026D01*
X32766D01*
Y209042D01*
X30734D01*
Y208026D01*
X29718D01*
Y205994D01*
X30734D01*
X311404Y200914D02*
Y199898D01*
X313436D01*
Y200914D01*
X314452D01*
Y202946D01*
X313436D01*
Y203962D01*
X311404D01*
Y202946D01*
X310388D01*
Y200914D01*
X311404D01*
X317754D02*
Y199898D01*
X319786D01*
Y200914D01*
X320802D01*
Y202946D01*
X319786D01*
Y203962D01*
X317754D01*
Y202946D01*
X316738D01*
Y200914D01*
X317754D01*
X311404Y207264D02*
Y206248D01*
X313436D01*
Y207264D01*
X314452D01*
Y209296D01*
X313436D01*
Y210312D01*
X311404D01*
Y209296D01*
X310388D01*
Y207264D01*
X311404D01*
X317754D02*
Y206248D01*
X319786D01*
Y207264D01*
X320802D01*
Y209296D01*
X319786D01*
Y210312D01*
X317754D01*
Y209296D01*
X316738D01*
Y207264D01*
X317754D01*
X374904Y352044D02*
Y351028D01*
X376936D01*
Y352044D01*
X377952D01*
Y354076D01*
X376936D01*
Y355092D01*
X374904D01*
Y354076D01*
X373888D01*
Y352044D01*
X374904D01*
X381254D02*
Y351028D01*
X383286D01*
Y352044D01*
X384302D01*
Y354076D01*
X383286D01*
Y355092D01*
X381254D01*
Y354076D01*
X380238D01*
Y352044D01*
X381254D01*
X374904Y358394D02*
Y357378D01*
X376936D01*
Y358394D01*
X377952D01*
Y360426D01*
X376936D01*
Y361442D01*
X374904D01*
Y360426D01*
X373888D01*
Y358394D01*
X374904D01*
X381254D02*
Y357378D01*
X383286D01*
Y358394D01*
X384302D01*
Y360426D01*
X383286D01*
Y361442D01*
X381254D01*
Y360426D01*
X380238D01*
Y358394D01*
X381254D01*
X391414Y61214D02*
Y60198D01*
X393446D01*
Y61214D01*
X394462D01*
Y63246D01*
X393446D01*
Y64262D01*
X391414D01*
Y63246D01*
X390398D01*
Y61214D01*
X391414D01*
X524764Y237744D02*
Y236728D01*
X526796D01*
Y237744D01*
X527812D01*
Y239776D01*
X526796D01*
Y240792D01*
X524764D01*
Y239776D01*
X523748D01*
Y237744D01*
X524764D01*
X503174Y226314D02*
Y225298D01*
X505206D01*
Y226314D01*
X506222D01*
Y228346D01*
X505206D01*
Y229362D01*
X503174D01*
Y228346D01*
X502158D01*
Y226314D01*
X503174D01*
X538734Y183134D02*
Y182118D01*
X540766D01*
Y183134D01*
X541782D01*
Y185166D01*
X540766D01*
Y186182D01*
X538734D01*
Y185166D01*
X537718D01*
Y183134D01*
X538734D01*
X545084D02*
Y182118D01*
X547116D01*
Y183134D01*
X548132D01*
Y185166D01*
X547116D01*
Y186182D01*
X545084D01*
Y185166D01*
X544068D01*
Y183134D01*
X545084D01*
X687324Y227584D02*
Y226568D01*
X689356D01*
Y227584D01*
X690372D01*
Y229616D01*
X689356D01*
Y230632D01*
X687324D01*
Y229616D01*
X686308D01*
Y227584D01*
X687324D01*
X782574D02*
Y226568D01*
X784606D01*
Y227584D01*
X785622D01*
Y229616D01*
X784606D01*
Y230632D01*
X782574D01*
Y229616D01*
X781558D01*
Y227584D01*
X782574D01*
X336804Y446024D02*
Y445008D01*
X338836D01*
Y446024D01*
X339852D01*
Y448056D01*
X338836D01*
Y449072D01*
X336804D01*
Y448056D01*
X335788D01*
Y446024D01*
X336804D01*
X236474Y410464D02*
Y409448D01*
X238506D01*
Y410464D01*
X239522D01*
Y412496D01*
X238506D01*
Y413512D01*
X236474D01*
Y412496D01*
X235458D01*
Y410464D01*
X236474D01*
X344424Y447294D02*
Y446278D01*
X346456D01*
Y447294D01*
X347472D01*
Y449326D01*
X346456D01*
Y450342D01*
X344424D01*
Y449326D01*
X343408D01*
Y447294D01*
X344424D01*
X439674Y439674D02*
Y438658D01*
X441706D01*
Y439674D01*
X442722D01*
Y441706D01*
X441706D01*
Y442722D01*
X439674D01*
Y441706D01*
X438658D01*
Y439674D01*
X439674D01*
X341884Y458724D02*
Y457708D01*
X343916D01*
Y458724D01*
X344932D01*
Y460756D01*
X343916D01*
Y461772D01*
X341884D01*
Y460756D01*
X340868D01*
Y458724D01*
X341884D01*
X452374Y350774D02*
Y349758D01*
X454406D01*
Y350774D01*
X455422D01*
Y352806D01*
X454406D01*
Y353822D01*
X452374D01*
Y352806D01*
X451358D01*
Y350774D01*
X452374D01*
X363474Y421894D02*
Y420878D01*
X365506D01*
Y421894D01*
X366522D01*
Y423926D01*
X365506D01*
Y424942D01*
X363474D01*
Y423926D01*
X362458D01*
Y421894D01*
X363474D01*
X627634Y315214D02*
Y314198D01*
X629666D01*
Y315214D01*
X630682D01*
Y317246D01*
X629666D01*
Y318262D01*
X627634D01*
Y317246D01*
X626618D01*
Y315214D01*
X627634D01*
X640334Y320294D02*
Y319278D01*
X642366D01*
Y320294D01*
X643382D01*
Y322326D01*
X642366D01*
Y323342D01*
X640334D01*
Y322326D01*
X639318D01*
Y320294D01*
X640334D01*
X621284Y330175D02*
Y329159D01*
X623316D01*
Y330175D01*
X624332D01*
Y332207D01*
X623316D01*
Y333223D01*
X621284D01*
Y332207D01*
X620268D01*
Y330175D01*
X621284D01*
X458724Y321564D02*
Y320548D01*
X460756D01*
Y321564D01*
X461772D01*
Y323596D01*
X460756D01*
Y324612D01*
X458724D01*
Y323596D01*
X457708D01*
Y321564D01*
X458724D01*
X448564Y331724D02*
Y330708D01*
X450596D01*
Y331724D01*
X451612D01*
Y333756D01*
X450596D01*
Y334772D01*
X448564D01*
Y333756D01*
X447548D01*
Y331724D01*
X448564D01*
X277939Y291084D02*
Y290068D01*
X279971D01*
Y291084D01*
X280987D01*
Y293116D01*
X279971D01*
Y294132D01*
X277939D01*
Y293116D01*
X276923D01*
Y291084D01*
X277939D01*
X522224Y172974D02*
Y171958D01*
X524256D01*
Y172974D01*
X525272D01*
Y175006D01*
X524256D01*
Y176022D01*
X522224D01*
Y175006D01*
X521208D01*
Y172974D01*
X522224D01*
X528574Y166624D02*
Y165608D01*
X530606D01*
Y166624D01*
X531622D01*
Y168656D01*
X530606D01*
Y169672D01*
X528574D01*
Y168656D01*
X527558D01*
Y166624D01*
X528574D01*
X494284Y218694D02*
Y217678D01*
X496316D01*
Y218694D01*
X497332D01*
Y220726D01*
X496316D01*
Y221742D01*
X494284D01*
Y220726D01*
X493268D01*
Y218694D01*
X494284D01*
X91694Y315974D02*
Y314958D01*
X93726D01*
Y315974D01*
X94742D01*
Y318006D01*
X93726D01*
Y319022D01*
X91694D01*
Y318006D01*
X90678D01*
Y315974D01*
X91694D01*
X86614D02*
Y314958D01*
X88646D01*
Y315974D01*
X89662D01*
Y318006D01*
X88646D01*
Y319022D01*
X86614D01*
Y318006D01*
X85598D01*
Y315974D01*
X86614D01*
Y321054D02*
Y320038D01*
X88646D01*
Y321054D01*
X89662D01*
Y323086D01*
X88646D01*
Y324102D01*
X86614D01*
Y323086D01*
X85598D01*
Y321054D01*
X86614D01*
X91694D02*
Y320038D01*
X93726D01*
Y321054D01*
X94742D01*
Y323086D01*
X93726D01*
Y324102D01*
X91694D01*
Y323086D01*
X90678D01*
Y321054D01*
X91694D01*
Y363474D02*
Y362458D01*
X93726D01*
Y363474D01*
X94742D01*
Y365506D01*
X93726D01*
Y366522D01*
X91694D01*
Y365506D01*
X90678D01*
Y363474D01*
X91694D01*
X86614D02*
Y362458D01*
X88646D01*
Y363474D01*
X89662D01*
Y365506D01*
X88646D01*
Y366522D01*
X86614D01*
Y365506D01*
X85598D01*
Y363474D01*
X86614D01*
Y368554D02*
Y367538D01*
X88646D01*
Y368554D01*
X89662D01*
Y370586D01*
X88646D01*
Y371602D01*
X86614D01*
Y370586D01*
X85598D01*
Y368554D01*
X86614D01*
X91694D02*
Y367538D01*
X93726D01*
Y368554D01*
X94742D01*
Y370586D01*
X93726D01*
Y371602D01*
X91694D01*
Y370586D01*
X90678D01*
Y368554D01*
X91694D01*
X53594Y336804D02*
Y335788D01*
X55626D01*
Y336804D01*
X56642D01*
Y338836D01*
X55626D01*
Y339852D01*
X53594D01*
Y338836D01*
X52578D01*
Y336804D01*
X53594D01*
Y346964D02*
Y345948D01*
X55626D01*
Y346964D01*
X56642D01*
Y348996D01*
X55626D01*
Y350012D01*
X53594D01*
Y348996D01*
X52578D01*
Y346964D01*
X53594D01*
X441706Y311912D02*
Y310896D01*
X443738D01*
Y311912D01*
X444754D01*
Y313944D01*
X443738D01*
Y314960D01*
X441706D01*
Y313944D01*
X440690D01*
Y311912D01*
X441706D01*
X477139Y303149D02*
Y302133D01*
X479171D01*
Y303149D01*
X480187D01*
Y305181D01*
X479171D01*
Y306197D01*
X477139D01*
Y305181D01*
X476123D01*
Y303149D01*
X477139D01*
X486664Y218694D02*
Y217678D01*
X488696D01*
Y218694D01*
X489712D01*
Y220726D01*
X488696D01*
Y221742D01*
X486664D01*
Y220726D01*
X485648D01*
Y218694D01*
X486664D01*
X439674Y227584D02*
Y226568D01*
X441706D01*
Y227584D01*
X442722D01*
Y229616D01*
X441706D01*
Y230632D01*
X439674D01*
Y229616D01*
X438658D01*
Y227584D01*
X439674D01*
X599694Y259334D02*
Y258318D01*
X601726D01*
Y259334D01*
X602742D01*
Y261366D01*
X601726D01*
Y262382D01*
X599694D01*
Y261366D01*
X598678D01*
Y259334D01*
X599694D01*
X606044D02*
Y258318D01*
X608076D01*
Y259334D01*
X609092D01*
Y261366D01*
X608076D01*
Y262382D01*
X606044D01*
Y261366D01*
X605028D01*
Y259334D01*
X606044D01*
X612394D02*
Y258318D01*
X614426D01*
Y259334D01*
X615442D01*
Y261366D01*
X614426D01*
Y262382D01*
X612394D01*
Y261366D01*
X611378D01*
Y259334D01*
X612394D01*
X618744D02*
Y258318D01*
X620776D01*
Y259334D01*
X621792D01*
Y261366D01*
X620776D01*
Y262382D01*
X618744D01*
Y261366D01*
X617728D01*
Y259334D01*
X618744D01*
X593344D02*
Y258318D01*
X595376D01*
Y259334D01*
X596392D01*
Y261366D01*
X595376D01*
Y262382D01*
X593344D01*
Y261366D01*
X592328D01*
Y259334D01*
X593344D01*
X586994D02*
Y258318D01*
X589026D01*
Y259334D01*
X590042D01*
Y261366D01*
X589026D01*
Y262382D01*
X586994D01*
Y261366D01*
X585978D01*
Y259334D01*
X586994D01*
X580644D02*
Y258318D01*
X582676D01*
Y259334D01*
X583692D01*
Y261366D01*
X582676D01*
Y262382D01*
X580644D01*
Y261366D01*
X579628D01*
Y259334D01*
X580644D01*
X574294D02*
Y258318D01*
X576326D01*
Y259334D01*
X577342D01*
Y261366D01*
X576326D01*
Y262382D01*
X574294D01*
Y261366D01*
X573278D01*
Y259334D01*
X574294D01*
X567944D02*
Y258318D01*
X569976D01*
Y259334D01*
X570992D01*
Y261366D01*
X569976D01*
Y262382D01*
X567944D01*
Y261366D01*
X566928D01*
Y259334D01*
X567944D01*
X623824Y236474D02*
Y235458D01*
X625856D01*
Y236474D01*
X626872D01*
Y238506D01*
X625856D01*
Y239522D01*
X623824D01*
Y238506D01*
X622808D01*
Y236474D01*
X623824D01*
X559054Y279654D02*
Y278638D01*
X561086D01*
Y279654D01*
X562102D01*
Y281686D01*
X561086D01*
Y282702D01*
X559054D01*
Y281686D01*
X558038D01*
Y279654D01*
X559054D01*
Y273304D02*
Y272288D01*
X561086D01*
Y273304D01*
X562102D01*
Y275336D01*
X561086D01*
Y276352D01*
X559054D01*
Y275336D01*
X558038D01*
Y273304D01*
X559054D01*
X606044Y217424D02*
Y216408D01*
X608076D01*
Y217424D01*
X609092D01*
Y219456D01*
X608076D01*
Y220472D01*
X606044D01*
Y219456D01*
X605028D01*
Y217424D01*
X606044D01*
X599694D02*
Y216408D01*
X601726D01*
Y217424D01*
X602742D01*
Y219456D01*
X601726D01*
Y220472D01*
X599694D01*
Y219456D01*
X598678D01*
Y217424D01*
X599694D01*
X593344D02*
Y216408D01*
X595376D01*
Y217424D01*
X596392D01*
Y219456D01*
X595376D01*
Y220472D01*
X593344D01*
Y219456D01*
X592328D01*
Y217424D01*
X593344D01*
X586994D02*
Y216408D01*
X589026D01*
Y217424D01*
X590042D01*
Y219456D01*
X589026D01*
Y220472D01*
X586994D01*
Y219456D01*
X585978D01*
Y217424D01*
X586994D01*
X601021Y279654D02*
Y278638D01*
X603052D01*
Y279654D01*
X604068D01*
Y281686D01*
X603052D01*
Y282702D01*
X601021D01*
Y281686D01*
X600005D01*
Y279654D01*
X601021D01*
Y273304D02*
Y272288D01*
X603052D01*
Y273304D01*
X604068D01*
Y275336D01*
X603052D01*
Y276352D01*
X601021D01*
Y275336D01*
X600005D01*
Y273304D01*
X601021D01*
X572517Y189484D02*
Y188468D01*
X574549D01*
Y189484D01*
X575565D01*
Y191516D01*
X574549D01*
Y192532D01*
X572517D01*
Y191516D01*
X571501D01*
Y189484D01*
X572517D01*
X585347Y189861D02*
Y188845D01*
X587379D01*
Y189861D01*
X588395D01*
Y191893D01*
X587379D01*
Y192909D01*
X585347D01*
Y191893D01*
X584331D01*
Y189861D01*
X585347D01*
X479044Y260604D02*
Y259588D01*
X481076D01*
Y260604D01*
X482092D01*
Y262636D01*
X481076D01*
Y263652D01*
X479044D01*
Y262636D01*
X478028D01*
Y260604D01*
X479044D01*
X485394D02*
Y259588D01*
X487426D01*
Y260604D01*
X488442D01*
Y262636D01*
X487426D01*
Y263652D01*
X485394D01*
Y262636D01*
X484378D01*
Y260604D01*
X485394D01*
X479044Y266954D02*
Y265938D01*
X481076D01*
Y266954D01*
X482092D01*
Y268986D01*
X481076D01*
Y270002D01*
X479044D01*
Y268986D01*
X478028D01*
Y266954D01*
X479044D01*
X485394D02*
Y265938D01*
X487426D01*
Y266954D01*
X488442D01*
Y268986D01*
X487426D01*
Y270002D01*
X485394D01*
Y268986D01*
X484378D01*
Y266954D01*
X485394D01*
D86*
X822032Y470000D02*
G03*
X822032Y470000I-2032J0D01*
G01*
Y30000D02*
G03*
X822032Y30000I-2032J0D01*
G01*
X32032D02*
G03*
X32032Y30000I-2032J0D01*
G01*
Y470000D02*
G03*
X32032Y470000I-2032J0D01*
G01*
M02*
