G04 Layer_Color=65535*
%FSLAX44Y44*%
%MOMM*%
G71*
G01*
G75*
%ADD28C,0.2540*%
%ADD29C,0.2000*%
%ADD32C,0.4000*%
%ADD51C,0.1000*%
%ADD52C,0.1500*%
%ADD53C,0.2200*%
G36*
X278403Y173561D02*
X278544Y173419D01*
X278685Y172996D01*
Y172855D01*
Y172714D01*
X276286Y167070D01*
X276145Y166929D01*
X276004Y166647D01*
X275722Y166506D01*
X211946D01*
X211382Y166365D01*
X209830Y166082D01*
X208277Y165518D01*
X208136D01*
X207995Y165377D01*
X207149Y164813D01*
X206020Y163966D01*
X204891Y162837D01*
X204609Y162555D01*
X204044Y161850D01*
X203339Y160580D01*
X202634Y159169D01*
Y159028D01*
X202493Y158745D01*
X202351Y158322D01*
X202210Y157899D01*
X201928Y156488D01*
X201787Y154795D01*
Y154654D01*
Y154513D01*
Y154089D01*
X201928Y153525D01*
X202069Y152255D01*
X202351Y150703D01*
Y150562D01*
X202493Y150421D01*
X202775Y149433D01*
X203480Y148304D01*
X204468Y147176D01*
X216602Y135747D01*
X216743Y135605D01*
X217026Y135323D01*
X217167Y134759D01*
X217308Y134194D01*
Y134053D01*
X217167Y133630D01*
X217026Y133066D01*
X216602Y132642D01*
X216461Y132501D01*
X216179Y132360D01*
X215756Y132219D01*
X215050Y132078D01*
X183303D01*
X183021Y132360D01*
Y132501D01*
X182880Y132925D01*
Y133066D01*
X196566Y166365D01*
Y166506D01*
X196707Y166647D01*
X197131Y167352D01*
X197695Y168199D01*
X198401Y169187D01*
X198683Y169469D01*
X199247Y170033D01*
X200094Y170739D01*
X201223Y171585D01*
X201364D01*
X201505Y171726D01*
X202210Y172291D01*
X203198Y172714D01*
X204468Y173278D01*
X204609D01*
X204750Y173419D01*
X205597Y173561D01*
X206725Y173702D01*
X207995Y173843D01*
X278120D01*
X278403Y173561D01*
D02*
G37*
G36*
X271489Y156629D02*
X271630Y156488D01*
Y156206D01*
Y156065D01*
Y155924D01*
X261189Y130808D01*
Y130667D01*
X260907Y130244D01*
X260483Y129538D01*
X260060Y128833D01*
X259355Y127845D01*
X258508Y126858D01*
X257520Y125870D01*
X256392Y125023D01*
X256250Y124882D01*
X255827Y124741D01*
X255122Y124318D01*
X254275Y123895D01*
X253146Y123471D01*
X252017Y123189D01*
X250607Y122907D01*
X249196Y122766D01*
X244681D01*
X244539Y122907D01*
X244257Y123048D01*
X244116Y123471D01*
Y123612D01*
Y123753D01*
X257379Y155641D01*
Y155782D01*
X257520Y155924D01*
X257944Y156488D01*
X258085Y156629D01*
X258226Y156770D01*
X258508Y156911D01*
X271207D01*
X271489Y156629D01*
D02*
G37*
G36*
X247502D02*
X247644Y156488D01*
X247785Y156206D01*
X247644Y156065D01*
X234522Y124036D01*
X234380Y123895D01*
X234098Y123471D01*
X233534Y122907D01*
X232687Y122766D01*
X219706D01*
X219565Y122907D01*
X219706Y123048D01*
X219847Y123189D01*
X220271Y123330D01*
X220835Y123753D01*
X221541Y124177D01*
X222246Y124882D01*
X223234Y125729D01*
X223939Y126575D01*
X224786Y127704D01*
X224927Y127845D01*
X225068Y128268D01*
X225350Y128833D01*
X225774Y129679D01*
X226197Y130667D01*
X226479Y131796D01*
X226620Y133066D01*
X226761Y134336D01*
Y134477D01*
Y134759D01*
Y135182D01*
X226620Y135747D01*
X226479Y137016D01*
X225915Y138710D01*
Y138851D01*
X225774Y139133D01*
X225632Y139556D01*
X225350Y139979D01*
X224504Y141249D01*
X223375Y142519D01*
X211805Y153243D01*
X211664Y153384D01*
X211523Y153666D01*
X211382Y154089D01*
X211241Y154795D01*
Y154936D01*
X211382Y155218D01*
X211523Y155641D01*
X211805Y156206D01*
X211946Y156347D01*
X212228Y156629D01*
X212652Y156770D01*
X213216Y156911D01*
X247220D01*
X247502Y156629D01*
D02*
G37*
G36*
X27686Y245110D02*
X25146Y247650D01*
X27686Y250190D01*
Y245110D01*
D02*
G37*
G36*
X286766Y44450D02*
X284226Y46990D01*
X286766Y49530D01*
Y44450D01*
D02*
G37*
G36*
Y26670D02*
X284226Y29210D01*
X286766Y31750D01*
Y26670D01*
D02*
G37*
D28*
X383254Y145034D02*
G03*
X383254Y145034I-2000J0D01*
G01*
X97810Y214960D02*
X163810D01*
X97810D02*
Y251028D01*
X163810D01*
Y214960D02*
Y251028D01*
X363190Y57180D02*
X747190D01*
X363190Y29180D02*
Y57180D01*
Y3780D02*
X747014D01*
X363190D02*
Y31780D01*
X747190Y29180D02*
Y56974D01*
Y3780D02*
Y31780D01*
X347190Y207170D02*
Y227170D01*
Y207170D02*
X407190D01*
Y227170D01*
X347190D02*
X407190D01*
X104564Y48768D02*
X194564D01*
X104564Y8768D02*
Y48768D01*
Y8768D02*
X194564D01*
Y48768D01*
X28420Y117830D02*
X88138D01*
X28420Y82830D02*
X88420D01*
Y117830D01*
X28420Y82830D02*
Y117830D01*
X45212Y91186D02*
Y109728D01*
X71882D01*
Y90930D02*
Y109728D01*
X45212Y90930D02*
X71882D01*
X811500Y284450D02*
Y414450D01*
X839500D01*
Y284450D02*
Y414450D01*
X811500Y284450D02*
X839500D01*
X363190Y496600D02*
X747190D01*
X363190Y468600D02*
Y496600D01*
Y443200D02*
X747014D01*
X363190D02*
Y471200D01*
X747190Y468600D02*
Y496394D01*
Y443200D02*
Y471200D01*
X86330Y483900D02*
X190530D01*
Y455900D02*
Y483900D01*
X86330Y455900D02*
X190530D01*
X86330D02*
Y483900D01*
X761210Y205460D02*
X820928D01*
X761210Y170460D02*
X821210D01*
Y205460D01*
X761210Y170460D02*
Y205460D01*
X778002Y178816D02*
Y197358D01*
X804672D01*
Y178560D02*
Y197358D01*
X778002Y178560D02*
X804672D01*
X761210Y164820D02*
X820928D01*
X761210Y129820D02*
X821210D01*
Y164820D01*
X761210Y129820D02*
Y164820D01*
X778002Y138176D02*
Y156718D01*
X804672D01*
Y137920D02*
Y156718D01*
X778002Y137920D02*
X804672D01*
X248890Y398810D02*
X353090D01*
Y370810D02*
Y398810D01*
X248890Y370810D02*
X353090D01*
X248890D02*
Y398810D01*
D29*
X248285Y485140D02*
G03*
X254635Y485140I3175J0D01*
G01*
X205105Y307340D02*
G03*
X198755Y307340I-3175J0D01*
G01*
X388620Y177800D02*
X420620D01*
X388620Y152800D02*
Y177800D01*
Y152800D02*
X420620D01*
Y177800D01*
X236728Y485140D02*
X248285D01*
X254635D02*
X266192D01*
Y434340D02*
Y485140D01*
X236728Y434340D02*
X266192D01*
X236728D02*
Y485140D01*
X205105Y307340D02*
X216662D01*
X187198D02*
X198755D01*
X187198D02*
Y358140D01*
X216662D01*
Y307340D02*
Y358140D01*
X28942Y300776D02*
X43942D01*
X28942Y390144D02*
X43942D01*
X69420Y300760D02*
Y308760D01*
Y381760D02*
Y389761D01*
X-4080Y300760D02*
Y390160D01*
Y300760D02*
X3420D01*
X-4080Y390160D02*
X3420D01*
X173382Y428368D02*
X171883Y426869D01*
Y423870D01*
X173382Y422370D01*
X179380D01*
X180880Y423870D01*
Y426869D01*
X179380Y428368D01*
X176381D01*
Y425369D01*
X180880Y431367D02*
X171883D01*
X180880Y437365D01*
X171883D01*
Y440364D02*
X180880D01*
Y444863D01*
X179380Y446362D01*
X173382D01*
X171883Y444863D01*
Y440364D01*
X146483Y431260D02*
Y437258D01*
Y434259D01*
X155480D01*
X146483Y440257D02*
X155480Y446255D01*
X146483D02*
X155480Y440257D01*
X130080Y431260D02*
X121083D01*
Y435759D01*
X122582Y437258D01*
X125582D01*
X127081Y435759D01*
Y431260D01*
Y434259D02*
X130080Y437258D01*
X121083Y440257D02*
X130080Y446255D01*
X121083D02*
X130080Y440257D01*
X95683Y437258D02*
Y431260D01*
X100182D01*
X98682Y434259D01*
Y435759D01*
X100182Y437258D01*
X103181D01*
X104680Y435759D01*
Y432760D01*
X103181Y431260D01*
X95683Y440257D02*
X101681D01*
X104680Y443256D01*
X101681Y446255D01*
X95683D01*
X335942Y345818D02*
X334443Y344319D01*
Y341320D01*
X335942Y339820D01*
X337442D01*
X338941Y341320D01*
Y344319D01*
X340441Y345818D01*
X341940D01*
X343440Y344319D01*
Y341320D01*
X341940Y339820D01*
X334443Y348817D02*
X343440D01*
Y353316D01*
X341940Y354815D01*
X335942D01*
X334443Y353316D01*
Y348817D01*
X343440Y357814D02*
X337442D01*
X334443Y360813D01*
X337442Y363812D01*
X343440D01*
X338941D01*
Y357814D01*
X310542Y345818D02*
X309043Y344319D01*
Y341320D01*
X310542Y339820D01*
X312042D01*
X313542Y341320D01*
Y344319D01*
X315041Y345818D01*
X316541D01*
X318040Y344319D01*
Y341320D01*
X316541Y339820D01*
X310542Y354815D02*
X309043Y353316D01*
Y350317D01*
X310542Y348817D01*
X316541D01*
X318040Y350317D01*
Y353316D01*
X316541Y354815D01*
X309043Y357814D02*
X318040D01*
Y363812D01*
X40100Y62960D02*
Y71957D01*
X44598D01*
X46098Y70458D01*
Y67459D01*
X44598Y65959D01*
X40100D01*
X43099D02*
X46098Y62960D01*
X53596D02*
X50597D01*
X49097Y64460D01*
Y67459D01*
X50597Y68958D01*
X53596D01*
X55095Y67459D01*
Y65959D01*
X49097D01*
X58094Y62960D02*
X62593D01*
X64092Y64460D01*
X62593Y65959D01*
X59594D01*
X58094Y67459D01*
X59594Y68958D01*
X64092D01*
X71590Y62960D02*
X68591D01*
X67091Y64460D01*
Y67459D01*
X68591Y68958D01*
X71590D01*
X73089Y67459D01*
Y65959D01*
X67091D01*
X77588Y70458D02*
Y68958D01*
X76088D01*
X79087D01*
X77588D01*
Y64460D01*
X79087Y62960D01*
X729642Y70228D02*
X728143Y68728D01*
Y65729D01*
X729642Y64230D01*
X735640D01*
X737140Y65729D01*
Y68728D01*
X735640Y70228D01*
X732642D01*
Y67229D01*
X737140Y73227D02*
X728143D01*
X737140Y79225D01*
X728143D01*
Y82224D02*
X737140D01*
Y86723D01*
X735640Y88222D01*
X729642D01*
X728143Y86723D01*
Y82224D01*
X729642Y106216D02*
X728143Y104717D01*
Y101718D01*
X729642Y100218D01*
X735640D01*
X737140Y101718D01*
Y104717D01*
X735640Y106216D01*
X732642D01*
Y103217D01*
X737140Y109215D02*
X728143D01*
X737140Y115213D01*
X728143D01*
Y118212D02*
X737140D01*
Y122711D01*
X735640Y124211D01*
X729642D01*
X728143Y122711D01*
Y118212D01*
X704242Y64230D02*
X702743Y65729D01*
Y68728D01*
X704242Y70228D01*
X705742D01*
X707242Y68728D01*
Y67229D01*
Y68728D01*
X708741Y70228D01*
X710240D01*
X711740Y68728D01*
Y65729D01*
X710240Y64230D01*
X702743Y73227D02*
X708741D01*
X711740Y76226D01*
X708741Y79225D01*
X702743D01*
X704242Y82224D02*
X702743Y83724D01*
Y86723D01*
X704242Y88222D01*
X705742D01*
X707242Y86723D01*
Y85223D01*
Y86723D01*
X708741Y88222D01*
X710240D01*
X711740Y86723D01*
Y83724D01*
X710240Y82224D01*
X704242Y100218D02*
X702743Y101718D01*
Y104717D01*
X704242Y106216D01*
X705742D01*
X707242Y104717D01*
Y103217D01*
Y104717D01*
X708741Y106216D01*
X710240D01*
X711740Y104717D01*
Y101718D01*
X710240Y100218D01*
X702743Y109215D02*
X708741D01*
X711740Y112214D01*
X708741Y115213D01*
X702743D01*
X704242Y118212D02*
X702743Y119712D01*
Y122711D01*
X704242Y124211D01*
X705742D01*
X707242Y122711D01*
Y121212D01*
Y122711D01*
X708741Y124211D01*
X710240D01*
X711740Y122711D01*
Y119712D01*
X710240Y118212D01*
X677343Y64230D02*
X686340D01*
Y68728D01*
X684840Y70228D01*
X683341D01*
X681842Y68728D01*
Y64230D01*
Y68728D01*
X680342Y70228D01*
X678842D01*
X677343Y68728D01*
Y64230D01*
X686340Y73227D02*
Y76226D01*
Y74727D01*
X677343D01*
X678842Y73227D01*
X686340Y85223D02*
X677343D01*
X681842Y80725D01*
Y86723D01*
X677343Y98719D02*
X686340D01*
Y103217D01*
X684840Y104717D01*
X683341D01*
X681842Y103217D01*
Y98719D01*
Y103217D01*
X680342Y104717D01*
X678842D01*
X677343Y103217D01*
Y98719D01*
X686340Y107716D02*
Y110715D01*
Y109215D01*
X677343D01*
X678842Y107716D01*
X677343Y121212D02*
Y115213D01*
X681842D01*
X680342Y118212D01*
Y119712D01*
X681842Y121212D01*
X684840D01*
X686340Y119712D01*
Y116713D01*
X684840Y115213D01*
X651943Y64230D02*
X660940D01*
Y68728D01*
X659441Y70228D01*
X657941D01*
X656441Y68728D01*
Y64230D01*
Y68728D01*
X654942Y70228D01*
X653442D01*
X651943Y68728D01*
Y64230D01*
X660940Y73227D02*
Y76226D01*
Y74727D01*
X651943D01*
X653442Y73227D01*
X660940Y86723D02*
Y80725D01*
X654942Y86723D01*
X653442D01*
X651943Y85223D01*
Y82224D01*
X653442Y80725D01*
X651943Y98719D02*
X660940D01*
Y103217D01*
X659441Y104717D01*
X657941D01*
X656441Y103217D01*
Y98719D01*
Y103217D01*
X654942Y104717D01*
X653442D01*
X651943Y103217D01*
Y98719D01*
X660940Y107716D02*
Y110715D01*
Y109215D01*
X651943D01*
X653442Y107716D01*
Y115213D02*
X651943Y116713D01*
Y119712D01*
X653442Y121212D01*
X654942D01*
X656441Y119712D01*
Y118212D01*
Y119712D01*
X657941Y121212D01*
X659441D01*
X660940Y119712D01*
Y116713D01*
X659441Y115213D01*
X626543Y64230D02*
X635540D01*
Y68728D01*
X634040Y70228D01*
X632541D01*
X631041Y68728D01*
Y64230D01*
Y68728D01*
X629542Y70228D01*
X628042D01*
X626543Y68728D01*
Y64230D01*
X635540Y73227D02*
Y76226D01*
Y74727D01*
X626543D01*
X628042Y73227D01*
Y80725D02*
X626543Y82224D01*
Y85223D01*
X628042Y86723D01*
X634040D01*
X635540Y85223D01*
Y82224D01*
X634040Y80725D01*
X628042D01*
X626543Y98719D02*
X635540D01*
Y103217D01*
X634040Y104717D01*
X632541D01*
X631041Y103217D01*
Y98719D01*
Y103217D01*
X629542Y104717D01*
X628042D01*
X626543Y103217D01*
Y98719D01*
X635540Y107716D02*
Y110715D01*
Y109215D01*
X626543D01*
X628042Y107716D01*
X635540Y115213D02*
Y118212D01*
Y116713D01*
X626543D01*
X628042Y115213D01*
X610140Y64230D02*
X601143D01*
Y68728D01*
X602642Y70228D01*
X605642D01*
X607141Y68728D01*
Y64230D01*
X601143Y73227D02*
X610140D01*
Y77726D01*
X608641Y79225D01*
X607141D01*
X605642Y77726D01*
Y73227D01*
Y77726D01*
X604142Y79225D01*
X602642D01*
X601143Y77726D01*
Y73227D01*
X610140Y82224D02*
Y85223D01*
Y83724D01*
X601143D01*
X602642Y82224D01*
X610140Y98719D02*
X601143D01*
Y103217D01*
X602642Y104717D01*
X605642D01*
X607141Y103217D01*
Y98719D01*
X601143Y107716D02*
X610140D01*
Y112214D01*
X608641Y113714D01*
X607141D01*
X605642Y112214D01*
Y107716D01*
Y112214D01*
X604142Y113714D01*
X602642D01*
X601143Y112214D01*
Y107716D01*
X610140Y122711D02*
Y116713D01*
X604142Y122711D01*
X602642D01*
X601143Y121212D01*
Y118212D01*
X602642Y116713D01*
X584740Y64230D02*
X575743D01*
Y68728D01*
X577242Y70228D01*
X580242D01*
X581741Y68728D01*
Y64230D01*
X577242Y79225D02*
X575743Y77726D01*
Y74727D01*
X577242Y73227D01*
X583241D01*
X584740Y74727D01*
Y77726D01*
X583241Y79225D01*
X575743Y88222D02*
Y82224D01*
X580242D01*
X578742Y85223D01*
Y86723D01*
X580242Y88222D01*
X583241D01*
X584740Y86723D01*
Y83724D01*
X583241Y82224D01*
X584740Y100218D02*
X575743D01*
Y104717D01*
X577242Y106216D01*
X580242D01*
X581741Y104717D01*
Y100218D01*
X575743Y109215D02*
X584740D01*
Y113714D01*
X583241Y115213D01*
X581741D01*
X580242Y113714D01*
Y109215D01*
Y113714D01*
X578742Y115213D01*
X577242D01*
X575743Y113714D01*
Y109215D01*
X577242Y118212D02*
X575743Y119712D01*
Y122711D01*
X577242Y124211D01*
X583241D01*
X584740Y122711D01*
Y119712D01*
X583241Y118212D01*
X577242D01*
X559340Y64230D02*
X550343D01*
Y68728D01*
X551842Y70228D01*
X554841D01*
X556341Y68728D01*
Y64230D01*
X559340Y73227D02*
X553342D01*
X550343Y76226D01*
X553342Y79225D01*
X559340D01*
X554841D01*
Y73227D01*
X550343Y82224D02*
Y88222D01*
X551842D01*
X557840Y82224D01*
X559340D01*
Y100218D02*
X550343D01*
Y104717D01*
X551842Y106216D01*
X554841D01*
X556341Y104717D01*
Y100218D01*
X551842Y115213D02*
X550343Y113714D01*
Y110715D01*
X551842Y109215D01*
X557840D01*
X559340Y110715D01*
Y113714D01*
X557840Y115213D01*
X559340Y122711D02*
X550343D01*
X554841Y118212D01*
Y124211D01*
X533940Y64230D02*
X524943D01*
Y68728D01*
X526442Y70228D01*
X529441D01*
X530941Y68728D01*
Y64230D01*
X533940Y73227D02*
X527942D01*
X524943Y76226D01*
X527942Y79225D01*
X533940D01*
X529441D01*
Y73227D01*
X524943Y88222D02*
Y82224D01*
X529441D01*
X527942Y85223D01*
Y86723D01*
X529441Y88222D01*
X532440D01*
X533940Y86723D01*
Y83724D01*
X532440Y82224D01*
X533940Y100218D02*
X524943D01*
Y104717D01*
X526442Y106216D01*
X529441D01*
X530941Y104717D01*
Y100218D01*
X533940Y109215D02*
X527942D01*
X524943Y112214D01*
X527942Y115213D01*
X533940D01*
X529441D01*
Y109215D01*
X524943Y124211D02*
X526442Y121212D01*
X529441Y118212D01*
X532440D01*
X533940Y119712D01*
Y122711D01*
X532440Y124211D01*
X530941D01*
X529441Y122711D01*
Y118212D01*
X508540Y64230D02*
X499543D01*
Y68728D01*
X501042Y70228D01*
X504041D01*
X505541Y68728D01*
Y64230D01*
X508540Y73227D02*
X502542D01*
X499543Y76226D01*
X502542Y79225D01*
X508540D01*
X504041D01*
Y73227D01*
X501042Y82224D02*
X499543Y83724D01*
Y86723D01*
X501042Y88222D01*
X502542D01*
X504041Y86723D01*
Y85223D01*
Y86723D01*
X505541Y88222D01*
X507040D01*
X508540Y86723D01*
Y83724D01*
X507040Y82224D01*
X508540Y100218D02*
X499543D01*
Y104717D01*
X501042Y106216D01*
X504041D01*
X505541Y104717D01*
Y100218D01*
X508540Y109215D02*
X502542D01*
X499543Y112214D01*
X502542Y115213D01*
X508540D01*
X504041D01*
Y109215D01*
X508540Y122711D02*
X499543D01*
X504041Y118212D01*
Y124211D01*
X483140Y64230D02*
X474143D01*
Y68728D01*
X475642Y70228D01*
X478642D01*
X480141Y68728D01*
Y64230D01*
X483140Y73227D02*
X477142D01*
X474143Y76226D01*
X477142Y79225D01*
X483140D01*
X478642D01*
Y73227D01*
X483140Y82224D02*
Y85223D01*
Y83724D01*
X474143D01*
X475642Y82224D01*
X483140Y98719D02*
X474143D01*
Y103217D01*
X475642Y104717D01*
X478642D01*
X480141Y103217D01*
Y98719D01*
X483140Y107716D02*
X477142D01*
X474143Y110715D01*
X477142Y113714D01*
X483140D01*
X478642D01*
Y107716D01*
X483140Y122711D02*
Y116713D01*
X477142Y122711D01*
X475642D01*
X474143Y121212D01*
Y118212D01*
X475642Y116713D01*
X457740Y64230D02*
X448743D01*
Y68728D01*
X450242Y70228D01*
X453242D01*
X454741Y68728D01*
Y64230D01*
X450242Y79225D02*
X448743Y77726D01*
Y74727D01*
X450242Y73227D01*
X456241D01*
X457740Y74727D01*
Y77726D01*
X456241Y79225D01*
X450242Y82224D02*
X448743Y83724D01*
Y86723D01*
X450242Y88222D01*
X451742D01*
X453242Y86723D01*
Y85223D01*
Y86723D01*
X454741Y88222D01*
X456241D01*
X457740Y86723D01*
Y83724D01*
X456241Y82224D01*
X457740Y100218D02*
X448743D01*
Y104717D01*
X450242Y106216D01*
X453242D01*
X454741Y104717D01*
Y100218D01*
X457740Y109215D02*
X451742D01*
X448743Y112214D01*
X451742Y115213D01*
X457740D01*
X453242D01*
Y109215D01*
X450242Y118212D02*
X448743Y119712D01*
Y122711D01*
X450242Y124211D01*
X456241D01*
X457740Y122711D01*
Y119712D01*
X456241Y118212D01*
X450242D01*
X432340Y64230D02*
X423343D01*
Y68728D01*
X424842Y70228D01*
X427841D01*
X429341Y68728D01*
Y64230D01*
X424842Y79225D02*
X423343Y77726D01*
Y74727D01*
X424842Y73227D01*
X430840D01*
X432340Y74727D01*
Y77726D01*
X430840Y79225D01*
X432340Y82224D02*
Y85223D01*
Y83724D01*
X423343D01*
X424842Y82224D01*
X432340Y98719D02*
X423343D01*
Y103217D01*
X424842Y104717D01*
X427841D01*
X429341Y103217D01*
Y98719D01*
X424842Y113714D02*
X423343Y112214D01*
Y109215D01*
X424842Y107716D01*
X430840D01*
X432340Y109215D01*
Y112214D01*
X430840Y113714D01*
X432340Y122711D02*
Y116713D01*
X426342Y122711D01*
X424842D01*
X423343Y121212D01*
Y118212D01*
X424842Y116713D01*
X406940Y64230D02*
X397943D01*
Y68728D01*
X399442Y70228D01*
X402441D01*
X403941Y68728D01*
Y64230D01*
Y67229D02*
X406940Y70228D01*
X399442Y79225D02*
X397943Y77726D01*
Y74727D01*
X399442Y73227D01*
X400942D01*
X402441Y74727D01*
Y77726D01*
X403941Y79225D01*
X405440D01*
X406940Y77726D01*
Y74727D01*
X405440Y73227D01*
X397943Y82224D02*
Y88222D01*
Y85223D01*
X406940D01*
Y100218D02*
X397943D01*
Y104717D01*
X399442Y106216D01*
X402441D01*
X403941Y104717D01*
Y100218D01*
X399442Y115213D02*
X397943Y113714D01*
Y110715D01*
X399442Y109215D01*
X405440D01*
X406940Y110715D01*
Y113714D01*
X405440Y115213D01*
X399442Y118212D02*
X397943Y119712D01*
Y122711D01*
X399442Y124211D01*
X405440D01*
X406940Y122711D01*
Y119712D01*
X405440Y118212D01*
X399442D01*
X374042Y70228D02*
X372543Y68728D01*
Y65729D01*
X374042Y64230D01*
X380041D01*
X381540Y65729D01*
Y68728D01*
X380041Y70228D01*
X381540Y73227D02*
Y76226D01*
Y74727D01*
X372543D01*
X374042Y73227D01*
Y80725D02*
X372543Y82224D01*
Y85223D01*
X374042Y86723D01*
X375542D01*
X377042Y85223D01*
Y83724D01*
Y85223D01*
X378541Y86723D01*
X380041D01*
X381540Y85223D01*
Y82224D01*
X380041Y80725D01*
X374042Y104717D02*
X372543Y103217D01*
Y100218D01*
X374042Y98719D01*
X380041D01*
X381540Y100218D01*
Y103217D01*
X380041Y104717D01*
X377042D01*
Y101718D01*
X381540Y107716D02*
X372543D01*
X381540Y113714D01*
X372543D01*
Y116713D02*
X381540D01*
Y121212D01*
X380041Y122711D01*
X374042D01*
X372543Y121212D01*
Y116713D01*
X779240Y301598D02*
X780740Y303097D01*
X783738D01*
X785238Y301598D01*
Y300098D01*
X783738Y298598D01*
X782239D01*
X783738D01*
X785238Y297099D01*
Y295599D01*
X783738Y294100D01*
X780740D01*
X779240Y295599D01*
X788237Y303097D02*
Y297099D01*
X791236Y294100D01*
X794235Y297099D01*
Y303097D01*
X797234Y301598D02*
X798734Y303097D01*
X801733D01*
X803232Y301598D01*
Y300098D01*
X801733Y298598D01*
X800233D01*
X801733D01*
X803232Y297099D01*
Y295599D01*
X801733Y294100D01*
X798734D01*
X797234Y295599D01*
X779240Y328497D02*
Y319500D01*
X783738D01*
X785238Y320999D01*
Y326998D01*
X783738Y328497D01*
X779240D01*
X788237D02*
X791236D01*
X789737D01*
Y319500D01*
X788237D01*
X791236D01*
X800233Y328497D02*
X797234D01*
X795735Y326998D01*
Y320999D01*
X797234Y319500D01*
X800233D01*
X801733Y320999D01*
Y326998D01*
X800233Y328497D01*
X785238Y352398D02*
X783738Y353897D01*
X780740D01*
X779240Y352398D01*
Y346399D01*
X780740Y344900D01*
X783738D01*
X785238Y346399D01*
X788237Y353897D02*
Y344900D01*
X794235D01*
X797234Y353897D02*
Y344900D01*
Y347899D01*
X803232Y353897D01*
X798734Y349398D01*
X803232Y344900D01*
X779240Y370300D02*
Y379297D01*
X783738D01*
X785238Y377798D01*
Y374799D01*
X783738Y373299D01*
X779240D01*
X782239D02*
X785238Y370300D01*
X794235Y377798D02*
X792736Y379297D01*
X789737D01*
X788237Y377798D01*
Y376298D01*
X789737Y374799D01*
X792736D01*
X794235Y373299D01*
Y371800D01*
X792736Y370300D01*
X789737D01*
X788237Y371800D01*
X797234Y379297D02*
X803232D01*
X800233D01*
Y370300D01*
X785238Y403198D02*
X783738Y404697D01*
X780740D01*
X779240Y403198D01*
Y397200D01*
X780740Y395700D01*
X783738D01*
X785238Y397200D01*
Y400199D01*
X782239D01*
X788237Y395700D02*
Y404697D01*
X794235Y395700D01*
Y404697D01*
X797234D02*
Y395700D01*
X801733D01*
X803232Y397200D01*
Y403198D01*
X801733Y404697D01*
X797234D01*
X729642Y383918D02*
X728143Y382419D01*
Y379420D01*
X729642Y377920D01*
X735640D01*
X737140Y379420D01*
Y382419D01*
X735640Y383918D01*
X732642D01*
Y380919D01*
X737140Y386917D02*
X728143D01*
X737140Y392915D01*
X728143D01*
Y395914D02*
X737140D01*
Y400413D01*
X735640Y401912D01*
X729642D01*
X728143Y400413D01*
Y395914D01*
X729642Y419906D02*
X728143Y418407D01*
Y415408D01*
X729642Y413908D01*
X735640D01*
X737140Y415408D01*
Y418407D01*
X735640Y419906D01*
X732642D01*
Y416907D01*
X737140Y422905D02*
X728143D01*
X737140Y428904D01*
X728143D01*
Y431903D02*
X737140D01*
Y436401D01*
X735640Y437901D01*
X729642D01*
X728143Y436401D01*
Y431903D01*
X711740Y377920D02*
X702743D01*
Y382419D01*
X704242Y383918D01*
X707242D01*
X708741Y382419D01*
Y377920D01*
X704242Y392915D02*
X702743Y391416D01*
Y388417D01*
X704242Y386917D01*
X710240D01*
X711740Y388417D01*
Y391416D01*
X710240Y392915D01*
X702743Y395914D02*
Y401912D01*
X704242D01*
X710240Y395914D01*
X711740D01*
Y413908D02*
X702743D01*
Y418407D01*
X704242Y419906D01*
X707242D01*
X708741Y418407D01*
Y413908D01*
X704242Y428904D02*
X702743Y427404D01*
Y424405D01*
X704242Y422905D01*
X710240D01*
X711740Y424405D01*
Y427404D01*
X710240Y428904D01*
X702743Y437901D02*
X704242Y434902D01*
X707242Y431903D01*
X710240D01*
X711740Y433402D01*
Y436401D01*
X710240Y437901D01*
X708741D01*
X707242Y436401D01*
Y431903D01*
X686340Y377920D02*
X677343D01*
Y382419D01*
X678842Y383918D01*
X681842D01*
X683341Y382419D01*
Y377920D01*
X678842Y392915D02*
X677343Y391416D01*
Y388417D01*
X678842Y386917D01*
X684840D01*
X686340Y388417D01*
Y391416D01*
X684840Y392915D01*
Y395914D02*
X686340Y397414D01*
Y400413D01*
X684840Y401912D01*
X678842D01*
X677343Y400413D01*
Y397414D01*
X678842Y395914D01*
X680342D01*
X681842Y397414D01*
Y401912D01*
X686340Y413908D02*
X677343D01*
Y418407D01*
X678842Y419906D01*
X681842D01*
X683341Y418407D01*
Y413908D01*
X678842Y428904D02*
X677343Y427404D01*
Y424405D01*
X678842Y422905D01*
X684840D01*
X686340Y424405D01*
Y427404D01*
X684840Y428904D01*
X678842Y431903D02*
X677343Y433402D01*
Y436401D01*
X678842Y437901D01*
X680342D01*
X681842Y436401D01*
X683341Y437901D01*
X684840D01*
X686340Y436401D01*
Y433402D01*
X684840Y431903D01*
X683341D01*
X681842Y433402D01*
X680342Y431903D01*
X678842D01*
X681842Y433402D02*
Y436401D01*
X660940Y377920D02*
X651943D01*
Y382419D01*
X653442Y383918D01*
X656441D01*
X657941Y382419D01*
Y377920D01*
X660940Y386917D02*
X654942D01*
X651943Y389916D01*
X654942Y392915D01*
X660940D01*
X656441D01*
Y386917D01*
X659441Y395914D02*
X660940Y397414D01*
Y400413D01*
X659441Y401912D01*
X653442D01*
X651943Y400413D01*
Y397414D01*
X653442Y395914D01*
X654942D01*
X656441Y397414D01*
Y401912D01*
X660940Y413908D02*
X651943D01*
Y418407D01*
X653442Y419906D01*
X656441D01*
X657941Y418407D01*
Y413908D01*
X660940Y422905D02*
X654942D01*
X651943Y425905D01*
X654942Y428904D01*
X660940D01*
X656441D01*
Y422905D01*
X653442Y431903D02*
X651943Y433402D01*
Y436401D01*
X653442Y437901D01*
X654942D01*
X656441Y436401D01*
X657941Y437901D01*
X659441D01*
X660940Y436401D01*
Y433402D01*
X659441Y431903D01*
X657941D01*
X656441Y433402D01*
X654942Y431903D01*
X653442D01*
X656441Y433402D02*
Y436401D01*
X635540Y377920D02*
X629542D01*
X626543Y380919D01*
X629542Y383918D01*
X635540D01*
X631041D01*
Y377920D01*
X635540Y386917D02*
Y389916D01*
Y388417D01*
X626543D01*
X628042Y386917D01*
X635540Y394415D02*
Y397414D01*
Y395914D01*
X626543D01*
X628042Y394415D01*
X635540Y410909D02*
X629542D01*
X626543Y413908D01*
X629542Y416907D01*
X635540D01*
X631041D01*
Y410909D01*
X635540Y419906D02*
Y422905D01*
Y421406D01*
X626543D01*
X628042Y419906D01*
Y427404D02*
X626543Y428904D01*
Y431903D01*
X628042Y433402D01*
X634040D01*
X635540Y431903D01*
Y428904D01*
X634040Y427404D01*
X628042D01*
X610140Y377920D02*
X604142D01*
X601143Y380919D01*
X604142Y383918D01*
X610140D01*
X605642D01*
Y377920D01*
X610140Y386917D02*
Y389916D01*
Y388417D01*
X601143D01*
X602642Y386917D01*
Y394415D02*
X601143Y395914D01*
Y398913D01*
X602642Y400413D01*
X604142D01*
X605642Y398913D01*
Y397414D01*
Y398913D01*
X607141Y400413D01*
X608641D01*
X610140Y398913D01*
Y395914D01*
X608641Y394415D01*
X610140Y412409D02*
X604142D01*
X601143Y415408D01*
X604142Y418407D01*
X610140D01*
X605642D01*
Y412409D01*
X610140Y421406D02*
Y424405D01*
Y422905D01*
X601143D01*
X602642Y421406D01*
X610140Y434902D02*
Y428904D01*
X604142Y434902D01*
X602642D01*
X601143Y433402D01*
Y430403D01*
X602642Y428904D01*
X584740Y377920D02*
X578742D01*
X575743Y380919D01*
X578742Y383918D01*
X584740D01*
X580242D01*
Y377920D01*
X584740Y386917D02*
Y389916D01*
Y388417D01*
X575743D01*
X577242Y386917D01*
X575743Y400413D02*
Y394415D01*
X580242D01*
X578742Y397414D01*
Y398913D01*
X580242Y400413D01*
X583241D01*
X584740Y398913D01*
Y395914D01*
X583241Y394415D01*
X584740Y412409D02*
X578742D01*
X575743Y415408D01*
X578742Y418407D01*
X584740D01*
X580242D01*
Y412409D01*
X584740Y421406D02*
Y424405D01*
Y422905D01*
X575743D01*
X577242Y421406D01*
X584740Y433402D02*
X575743D01*
X580242Y428904D01*
Y434902D01*
X551842Y383918D02*
X550343Y382419D01*
Y379420D01*
X551842Y377920D01*
X557840D01*
X559340Y379420D01*
Y382419D01*
X557840Y383918D01*
X559340Y386917D02*
Y389916D01*
Y388417D01*
X550343D01*
X551842Y386917D01*
X559340Y394415D02*
Y397414D01*
Y395914D01*
X550343D01*
X551842Y394415D01*
Y416907D02*
X550343Y415408D01*
Y412409D01*
X551842Y410909D01*
X557840D01*
X559340Y412409D01*
Y415408D01*
X557840Y416907D01*
X559340Y419906D02*
Y422905D01*
Y421406D01*
X550343D01*
X551842Y419906D01*
Y427404D02*
X550343Y428904D01*
Y431903D01*
X551842Y433402D01*
X557840D01*
X559340Y431903D01*
Y428904D01*
X557840Y427404D01*
X551842D01*
X533940Y377920D02*
X524943D01*
Y382419D01*
X526442Y383918D01*
X529441D01*
X530941Y382419D01*
Y377920D01*
X524943Y386917D02*
X533940D01*
Y391416D01*
X532440Y392915D01*
X526442D01*
X524943Y391416D01*
Y386917D01*
X533940Y401912D02*
Y395914D01*
X527942Y401912D01*
X526442D01*
X524943Y400413D01*
Y397414D01*
X526442Y395914D01*
Y419906D02*
X524943Y418407D01*
Y415408D01*
X526442Y413908D01*
X532440D01*
X533940Y415408D01*
Y418407D01*
X532440Y419906D01*
X533940Y422905D02*
Y425905D01*
Y424405D01*
X524943D01*
X526442Y422905D01*
X533940Y436401D02*
Y430403D01*
X527942Y436401D01*
X526442D01*
X524943Y434902D01*
Y431903D01*
X526442Y430403D01*
X508540Y377920D02*
X499543D01*
Y382419D01*
X501042Y383918D01*
X504041D01*
X505541Y382419D01*
Y377920D01*
X499543Y386917D02*
X508540D01*
Y391416D01*
X507040Y392915D01*
X505541D01*
X504041Y391416D01*
Y386917D01*
Y391416D01*
X502542Y392915D01*
X501042D01*
X499543Y391416D01*
Y386917D01*
X508540Y400413D02*
X499543D01*
X504041Y395914D01*
Y401912D01*
X508540Y413908D02*
X499543D01*
Y418407D01*
X501042Y419906D01*
X504041D01*
X505541Y418407D01*
Y413908D01*
X499543Y422905D02*
X508540D01*
Y427404D01*
X507040Y428904D01*
X505541D01*
X504041Y427404D01*
Y422905D01*
Y427404D01*
X502542Y428904D01*
X501042D01*
X499543Y427404D01*
Y422905D01*
X501042Y431903D02*
X499543Y433402D01*
Y436401D01*
X501042Y437901D01*
X502542D01*
X504041Y436401D01*
Y434902D01*
Y436401D01*
X505541Y437901D01*
X507040D01*
X508540Y436401D01*
Y433402D01*
X507040Y431903D01*
X483140Y377920D02*
X474143D01*
Y382419D01*
X475642Y383918D01*
X478642D01*
X480141Y382419D01*
Y377920D01*
X474143Y386917D02*
X483140D01*
Y391416D01*
X481641Y392915D01*
X480141D01*
X478642Y391416D01*
Y386917D01*
Y391416D01*
X477142Y392915D01*
X475642D01*
X474143Y391416D01*
Y386917D01*
Y401912D02*
X475642Y398913D01*
X478642Y395914D01*
X481641D01*
X483140Y397414D01*
Y400413D01*
X481641Y401912D01*
X480141D01*
X478642Y400413D01*
Y395914D01*
X483140Y413908D02*
X474143D01*
Y418407D01*
X475642Y419906D01*
X478642D01*
X480141Y418407D01*
Y413908D01*
X474143Y422905D02*
X483140D01*
Y427404D01*
X481641Y428904D01*
X480141D01*
X478642Y427404D01*
Y422905D01*
Y427404D01*
X477142Y428904D01*
X475642D01*
X474143Y427404D01*
Y422905D01*
Y437901D02*
Y431903D01*
X478642D01*
X477142Y434902D01*
Y436401D01*
X478642Y437901D01*
X481641D01*
X483140Y436401D01*
Y433402D01*
X481641Y431903D01*
X457740Y377920D02*
X448743D01*
Y382419D01*
X450242Y383918D01*
X453242D01*
X454741Y382419D01*
Y377920D01*
X448743Y386917D02*
X457740D01*
X453242D01*
Y392915D01*
X448743D01*
X457740D01*
X450242Y395914D02*
X448743Y397414D01*
Y400413D01*
X450242Y401912D01*
X451742D01*
X453242Y400413D01*
Y398913D01*
Y400413D01*
X454741Y401912D01*
X456241D01*
X457740Y400413D01*
Y397414D01*
X456241Y395914D01*
X457740Y413908D02*
X448743D01*
Y418407D01*
X450242Y419906D01*
X453242D01*
X454741Y418407D01*
Y413908D01*
X448743Y422905D02*
X457740D01*
Y427404D01*
X456241Y428904D01*
X454741D01*
X453242Y427404D01*
Y422905D01*
Y427404D01*
X451742Y428904D01*
X450242D01*
X448743Y427404D01*
Y422905D01*
Y431903D02*
Y437901D01*
X450242D01*
X456241Y431903D01*
X457740D01*
X432340Y377920D02*
X423343D01*
Y382419D01*
X424842Y383918D01*
X427841D01*
X429341Y382419D01*
Y377920D01*
X423343Y386917D02*
X432340D01*
Y391416D01*
X430840Y392915D01*
X429341D01*
X427841Y391416D01*
Y386917D01*
Y391416D01*
X426342Y392915D01*
X424842D01*
X423343Y391416D01*
Y386917D01*
X430840Y395914D02*
X432340Y397414D01*
Y400413D01*
X430840Y401912D01*
X424842D01*
X423343Y400413D01*
Y397414D01*
X424842Y395914D01*
X426342D01*
X427841Y397414D01*
Y401912D01*
X432340Y413908D02*
X423343D01*
Y418407D01*
X424842Y419906D01*
X427841D01*
X429341Y418407D01*
Y413908D01*
X423343Y422905D02*
X432340D01*
Y427404D01*
X430840Y428904D01*
X429341D01*
X427841Y427404D01*
Y422905D01*
Y427404D01*
X426342Y428904D01*
X424842D01*
X423343Y427404D01*
Y422905D01*
X424842Y431903D02*
X423343Y433402D01*
Y436401D01*
X424842Y437901D01*
X426342D01*
X427841Y436401D01*
X429341Y437901D01*
X430840D01*
X432340Y436401D01*
Y433402D01*
X430840Y431903D01*
X429341D01*
X427841Y433402D01*
X426342Y431903D01*
X424842D01*
X427841Y433402D02*
Y436401D01*
X399442Y383918D02*
X397943Y382419D01*
Y379420D01*
X399442Y377920D01*
X405440D01*
X406940Y379420D01*
Y382419D01*
X405440Y383918D01*
X402441D01*
Y380919D01*
X406940Y386917D02*
X397943D01*
X406940Y392915D01*
X397943D01*
Y395914D02*
X406940D01*
Y400413D01*
X405440Y401912D01*
X399442D01*
X397943Y400413D01*
Y395914D01*
X399442Y419906D02*
X397943Y418407D01*
Y415408D01*
X399442Y413908D01*
X405440D01*
X406940Y415408D01*
Y418407D01*
X405440Y419906D01*
X402441D01*
Y416907D01*
X406940Y422905D02*
X397943D01*
X406940Y428904D01*
X397943D01*
Y431903D02*
X406940D01*
Y436401D01*
X405440Y437901D01*
X399442D01*
X397943Y436401D01*
Y431903D01*
X372543Y392915D02*
Y386917D01*
X377042D01*
X375542Y389916D01*
Y391416D01*
X377042Y392915D01*
X380041D01*
X381540Y391416D01*
Y388417D01*
X380041Y386917D01*
X372543Y395914D02*
X378541D01*
X381540Y398913D01*
X378541Y401912D01*
X372543D01*
X374042Y413908D02*
X372543Y415408D01*
Y418407D01*
X374042Y419906D01*
X375542D01*
X377042Y418407D01*
Y416907D01*
Y418407D01*
X378541Y419906D01*
X380041D01*
X381540Y418407D01*
Y415408D01*
X380041Y413908D01*
X372543Y422905D02*
X378541D01*
X381540Y425905D01*
X378541Y428904D01*
X372543D01*
X374042Y431903D02*
X372543Y433402D01*
Y436401D01*
X374042Y437901D01*
X375542D01*
X377042Y436401D01*
Y434902D01*
Y436401D01*
X378541Y437901D01*
X380041D01*
X381540Y436401D01*
Y433402D01*
X380041Y431903D01*
X286412Y339820D02*
X284913Y341320D01*
Y344319D01*
X286412Y345818D01*
X287912D01*
X289412Y344319D01*
Y342819D01*
Y344319D01*
X290911Y345818D01*
X292411D01*
X293910Y344319D01*
Y341320D01*
X292411Y339820D01*
X284913Y348817D02*
X290911D01*
X293910Y351816D01*
X290911Y354815D01*
X284913D01*
X286412Y357814D02*
X284913Y359314D01*
Y362313D01*
X286412Y363812D01*
X287912D01*
X289412Y362313D01*
Y360813D01*
Y362313D01*
X290911Y363812D01*
X292411D01*
X293910Y362313D01*
Y359314D01*
X292411Y357814D01*
X261012Y345818D02*
X259513Y344319D01*
Y341320D01*
X261012Y339820D01*
X267010D01*
X268510Y341320D01*
Y344319D01*
X267010Y345818D01*
X264011D01*
Y342819D01*
X268510Y348817D02*
X259513D01*
X268510Y354815D01*
X259513D01*
Y357814D02*
X268510D01*
Y362313D01*
X267010Y363812D01*
X261012D01*
X259513Y362313D01*
Y357814D01*
X137160Y378460D02*
Y387457D01*
X141658D01*
X143158Y385958D01*
Y382958D01*
X141658Y381459D01*
X137160D01*
X140159D02*
X143158Y378460D01*
X146157D02*
X149156D01*
X147657D01*
Y387457D01*
X146157Y385958D01*
X158153Y378460D02*
Y387457D01*
X153655Y382958D01*
X159653D01*
X415290Y246487D02*
X421288Y237490D01*
Y246487D02*
X415290Y237490D01*
X424287Y244988D02*
X425787Y246487D01*
X428786D01*
X430285Y244988D01*
Y243488D01*
X428786Y241989D01*
X427286D01*
X428786D01*
X430285Y240489D01*
Y238990D01*
X428786Y237490D01*
X425787D01*
X424287Y238990D01*
X386080Y194417D02*
X392078Y185420D01*
Y194417D02*
X386080Y185420D01*
X401075D02*
X395077D01*
X401075Y191418D01*
Y192918D01*
X399576Y194417D01*
X396577D01*
X395077Y192918D01*
X563868Y154952D02*
X569170Y149650D01*
X571290D01*
X573411Y151771D01*
Y153892D01*
X568109Y159193D01*
X574471Y165555D02*
X570230Y161314D01*
X573411Y158133D01*
X574471Y161314D01*
X575532Y162374D01*
X577652D01*
X579773Y160254D01*
Y158133D01*
X577652Y156012D01*
X575532D01*
X215900Y431907D02*
Y424409D01*
X217400Y422910D01*
X220399D01*
X221898Y424409D01*
Y431907D01*
X229396Y422910D02*
Y431907D01*
X224897Y427408D01*
X230895D01*
X100330Y284587D02*
Y277090D01*
X101830Y275590D01*
X104829D01*
X106328Y277090D01*
Y284587D01*
X109327Y283088D02*
X110827Y284587D01*
X113826D01*
X115325Y283088D01*
Y281588D01*
X113826Y280089D01*
X112326D01*
X113826D01*
X115325Y278589D01*
Y277090D01*
X113826Y275590D01*
X110827D01*
X109327Y277090D01*
X226060Y302367D02*
Y294869D01*
X227560Y293370D01*
X230558D01*
X232058Y294869D01*
Y302367D01*
X235057Y293370D02*
X238056D01*
X236557D01*
Y302367D01*
X235057Y300868D01*
X222250Y16510D02*
Y25507D01*
X226749D01*
X228248Y24008D01*
Y21009D01*
X226749Y19509D01*
X222250D01*
X225249D02*
X228248Y16510D01*
X231247D02*
X234246D01*
X232747D01*
Y25507D01*
X231247Y24008D01*
X238745D02*
X240244Y25507D01*
X243243D01*
X244743Y24008D01*
Y22508D01*
X243243Y21009D01*
X241744D01*
X243243D01*
X244743Y19509D01*
Y18010D01*
X243243Y16510D01*
X240244D01*
X238745Y18010D01*
X792480Y214630D02*
Y223627D01*
X796979D01*
X798478Y222128D01*
Y219128D01*
X796979Y217629D01*
X792480D01*
X795479D02*
X798478Y214630D01*
X801477D02*
X804476D01*
X802977D01*
Y223627D01*
X801477Y222128D01*
X808975D02*
X810474Y223627D01*
X813473D01*
X814973Y222128D01*
Y216129D01*
X813473Y214630D01*
X810474D01*
X808975Y216129D01*
Y222128D01*
X792480Y111760D02*
Y120757D01*
X796979D01*
X798478Y119258D01*
Y116258D01*
X796979Y114759D01*
X792480D01*
X795479D02*
X798478Y111760D01*
X801477Y120757D02*
X807475D01*
Y119258D01*
X801477Y113259D01*
Y111760D01*
X303530Y57150D02*
Y66147D01*
X308029D01*
X309528Y64648D01*
Y61649D01*
X308029Y60149D01*
X303530D01*
X306529D02*
X309528Y57150D01*
X312527D02*
X315526D01*
X314027D01*
Y66147D01*
X312527Y64648D01*
X326023Y57150D02*
X320025D01*
X326023Y63148D01*
Y64648D01*
X324523Y66147D01*
X321524D01*
X320025Y64648D01*
X336550Y433070D02*
Y442067D01*
X341049D01*
X342548Y440568D01*
Y437569D01*
X341049Y436069D01*
X336550D01*
X339549D02*
X342548Y433070D01*
X345547D02*
X348546D01*
X347047D01*
Y442067D01*
X345547Y440568D01*
X353045Y433070D02*
X356044D01*
X354544D01*
Y442067D01*
X353045Y440568D01*
X336550Y474980D02*
Y483977D01*
X341049D01*
X342548Y482478D01*
Y479478D01*
X341049Y477979D01*
X336550D01*
X339549D02*
X342548Y474980D01*
X345547Y482478D02*
X347047Y483977D01*
X350046D01*
X351545Y482478D01*
Y480978D01*
X350046Y479478D01*
X351545Y477979D01*
Y476479D01*
X350046Y474980D01*
X347047D01*
X345547Y476479D01*
Y477979D01*
X347047Y479478D01*
X345547Y480978D01*
Y482478D01*
X347047Y479478D02*
X350046D01*
X303530Y8890D02*
Y17887D01*
X308029D01*
X309528Y16388D01*
Y13389D01*
X308029Y11889D01*
X303530D01*
X306529D02*
X309528Y8890D01*
X312527Y10389D02*
X314027Y8890D01*
X317026D01*
X318525Y10389D01*
Y16388D01*
X317026Y17887D01*
X314027D01*
X312527Y16388D01*
Y14888D01*
X314027Y13389D01*
X318525D01*
X45720Y224790D02*
Y233787D01*
X50219D01*
X51718Y232288D01*
Y229289D01*
X50219Y227789D01*
X45720D01*
X48719D02*
X51718Y224790D01*
X60715Y233787D02*
X57716Y232288D01*
X54717Y229289D01*
Y226290D01*
X56217Y224790D01*
X59216D01*
X60715Y226290D01*
Y227789D01*
X59216Y229289D01*
X54717D01*
X270510Y233680D02*
Y242677D01*
X275009D01*
X276508Y241178D01*
Y238179D01*
X275009Y236679D01*
X270510D01*
X273509D02*
X276508Y233680D01*
X285505Y242677D02*
X279507D01*
Y238179D01*
X282506Y239678D01*
X284006D01*
X285505Y238179D01*
Y235180D01*
X284006Y233680D01*
X281007D01*
X279507Y235180D01*
X137160Y318770D02*
Y327767D01*
X141658D01*
X143158Y326268D01*
Y323269D01*
X141658Y321769D01*
X137160D01*
X140159D02*
X143158Y318770D01*
X150656D02*
Y327767D01*
X146157Y323269D01*
X152155D01*
X137160Y363220D02*
Y372217D01*
X141658D01*
X143158Y370718D01*
Y367719D01*
X141658Y366219D01*
X137160D01*
X140159D02*
X143158Y363220D01*
X146157Y370718D02*
X147657Y372217D01*
X150656D01*
X152155Y370718D01*
Y369218D01*
X150656Y367719D01*
X149156D01*
X150656D01*
X152155Y366219D01*
Y364720D01*
X150656Y363220D01*
X147657D01*
X146157Y364720D01*
X137160Y347980D02*
Y356977D01*
X141658D01*
X143158Y355478D01*
Y352478D01*
X141658Y350979D01*
X137160D01*
X140159D02*
X143158Y347980D01*
X152155D02*
X146157D01*
X152155Y353978D01*
Y355478D01*
X150656Y356977D01*
X147657D01*
X146157Y355478D01*
X137160Y332740D02*
Y341737D01*
X141658D01*
X143158Y340238D01*
Y337239D01*
X141658Y335739D01*
X137160D01*
X140159D02*
X143158Y332740D01*
X146157D02*
X149156D01*
X147657D01*
Y341737D01*
X146157Y340238D01*
X303530Y50907D02*
Y41910D01*
X309528D01*
X312527Y50907D02*
Y41910D01*
X317026D01*
X318525Y43410D01*
Y49408D01*
X317026Y50907D01*
X312527D01*
X321524Y49408D02*
X323024Y50907D01*
X326023D01*
X327522Y49408D01*
Y47908D01*
X326023Y46409D01*
X324523D01*
X326023D01*
X327522Y44909D01*
Y43410D01*
X326023Y41910D01*
X323024D01*
X321524Y43410D01*
X303530Y33127D02*
Y24130D01*
X309528D01*
X312527Y33127D02*
Y24130D01*
X317026D01*
X318525Y25629D01*
Y31628D01*
X317026Y33127D01*
X312527D01*
X327522Y24130D02*
X321524D01*
X327522Y30128D01*
Y31628D01*
X326023Y33127D01*
X323024D01*
X321524Y31628D01*
X45720Y252837D02*
Y243840D01*
X51718D01*
X54717Y252837D02*
Y243840D01*
X59216D01*
X60715Y245340D01*
Y251338D01*
X59216Y252837D01*
X54717D01*
X63714Y243840D02*
X66713D01*
X65214D01*
Y252837D01*
X63714Y251338D01*
X236220Y279507D02*
Y270510D01*
X242218D01*
X245217D02*
X248216D01*
X246717D01*
Y279507D01*
X245217Y278008D01*
X242218Y44557D02*
X239219D01*
X240718D01*
Y37060D01*
X239219Y35560D01*
X237719D01*
X236220Y37060D01*
X245217Y35560D02*
X248216D01*
X246717D01*
Y44557D01*
X245217Y43058D01*
X252715Y37060D02*
X254214Y35560D01*
X257213D01*
X258713Y37060D01*
Y43058D01*
X257213Y44557D01*
X254214D01*
X252715Y43058D01*
Y41558D01*
X254214Y40058D01*
X258713D01*
X708689Y334626D02*
X705691D01*
X707190D01*
Y327128D01*
X705691Y325629D01*
X704191D01*
X702691Y327128D01*
X711689Y325629D02*
X714688D01*
X713188D01*
Y334626D01*
X711689Y333126D01*
X719186D02*
X720686Y334626D01*
X723685D01*
X725184Y333126D01*
Y331627D01*
X723685Y330127D01*
X725184Y328628D01*
Y327128D01*
X723685Y325629D01*
X720686D01*
X719186Y327128D01*
Y328628D01*
X720686Y330127D01*
X719186Y331627D01*
Y333126D01*
X720686Y330127D02*
X723685D01*
X709578Y348087D02*
X706579D01*
X708079D01*
Y340589D01*
X706579Y339090D01*
X705079D01*
X703580Y340589D01*
X712577Y339090D02*
X715576D01*
X714077D01*
Y348087D01*
X712577Y346588D01*
X720075Y348087D02*
X726073D01*
Y346588D01*
X720075Y340589D01*
Y339090D01*
X459706Y259949D02*
X456707D01*
X458206D01*
Y252451D01*
X456707Y250952D01*
X455207D01*
X453708Y252451D01*
X462705Y250952D02*
X465704D01*
X464204D01*
Y259949D01*
X462705Y258450D01*
X476200Y259949D02*
X473201Y258450D01*
X470202Y255450D01*
Y252451D01*
X471702Y250952D01*
X474701D01*
X476200Y252451D01*
Y253951D01*
X474701Y255450D01*
X470202D01*
X459769Y246741D02*
X456770D01*
X458270D01*
Y239244D01*
X456770Y237744D01*
X455271D01*
X453771Y239244D01*
X462768Y237744D02*
X465767D01*
X464268D01*
Y246741D01*
X462768Y245242D01*
X476264Y246741D02*
X470266D01*
Y242243D01*
X473265Y243742D01*
X474764D01*
X476264Y242243D01*
Y239244D01*
X474764Y237744D01*
X471765D01*
X470266Y239244D01*
X459769Y272141D02*
X456770D01*
X458270D01*
Y264643D01*
X456770Y263144D01*
X455271D01*
X453771Y264643D01*
X462768Y263144D02*
X465767D01*
X464268D01*
Y272141D01*
X462768Y270642D01*
X474764Y263144D02*
Y272141D01*
X470266Y267642D01*
X476264D01*
X325657Y457053D02*
X322658D01*
X324157D01*
Y449556D01*
X322658Y448056D01*
X321158D01*
X319659Y449556D01*
X328656Y455554D02*
X330156Y457053D01*
X333155D01*
X334654Y455554D01*
Y454054D01*
X333155Y452555D01*
X334654Y451055D01*
Y449556D01*
X333155Y448056D01*
X330156D01*
X328656Y449556D01*
Y451055D01*
X330156Y452555D01*
X328656Y454054D01*
Y455554D01*
X330156Y452555D02*
X333155D01*
X304448Y334117D02*
X301449D01*
X302948D01*
Y326619D01*
X301449Y325120D01*
X299949D01*
X298450Y326619D01*
X313445Y334117D02*
X307447D01*
Y329618D01*
X310446Y331118D01*
X311946D01*
X313445Y329618D01*
Y326619D01*
X311946Y325120D01*
X308947D01*
X307447Y326619D01*
X304448Y321417D02*
X301449D01*
X302948D01*
Y313920D01*
X301449Y312420D01*
X299949D01*
X298450Y313920D01*
X311946Y312420D02*
Y321417D01*
X307447Y316919D01*
X313445D01*
X304448Y294747D02*
X301449D01*
X302948D01*
Y287250D01*
X301449Y285750D01*
X299949D01*
X298450Y287250D01*
X307447Y293248D02*
X308947Y294747D01*
X311946D01*
X313445Y293248D01*
Y291748D01*
X311946Y290249D01*
X310446D01*
X311946D01*
X313445Y288749D01*
Y287250D01*
X311946Y285750D01*
X308947D01*
X307447Y287250D01*
X304448Y307447D02*
X301449D01*
X302948D01*
Y299949D01*
X301449Y298450D01*
X299949D01*
X298450Y299949D01*
X307447Y298450D02*
X310446D01*
X308947D01*
Y307447D01*
X307447Y305948D01*
X145698Y307447D02*
X139700D01*
Y302948D01*
X142699D01*
X139700D01*
Y298450D01*
X148697D02*
X151696D01*
X150197D01*
Y307447D01*
X148697Y305948D01*
X483518Y203078D02*
X482019Y204577D01*
X479020D01*
X477520Y203078D01*
Y197080D01*
X479020Y195580D01*
X482019D01*
X483518Y197080D01*
X486517Y195580D02*
X489516D01*
X488017D01*
Y204577D01*
X486517Y203078D01*
X494015D02*
X495514Y204577D01*
X498513D01*
X500013Y203078D01*
Y201578D01*
X498513Y200079D01*
X497014D01*
X498513D01*
X500013Y198579D01*
Y197080D01*
X498513Y195580D01*
X495514D01*
X494015Y197080D01*
X482248Y229748D02*
X480748Y231247D01*
X477749D01*
X476250Y229748D01*
Y223750D01*
X477749Y222250D01*
X480748D01*
X482248Y223750D01*
X485247Y222250D02*
X488246D01*
X486747D01*
Y231247D01*
X485247Y229748D01*
X498743Y222250D02*
X492745D01*
X498743Y228248D01*
Y229748D01*
X497243Y231247D01*
X494244D01*
X492745Y229748D01*
X12348Y131958D02*
X10848Y133457D01*
X7850D01*
X6350Y131958D01*
Y125960D01*
X7850Y124460D01*
X10848D01*
X12348Y125960D01*
X21345Y124460D02*
X15347D01*
X21345Y130458D01*
Y131958D01*
X19846Y133457D01*
X16847D01*
X15347Y131958D01*
X24344D02*
X25844Y133457D01*
X28843D01*
X30342Y131958D01*
Y130458D01*
X28843Y128959D01*
X27343D01*
X28843D01*
X30342Y127459D01*
Y125960D01*
X28843Y124460D01*
X25844D01*
X24344Y125960D01*
X469548Y158628D02*
X468049Y160127D01*
X465050D01*
X463550Y158628D01*
Y152629D01*
X465050Y151130D01*
X468049D01*
X469548Y152629D01*
X472547Y151130D02*
X475546D01*
X474047D01*
Y160127D01*
X472547Y158628D01*
X480045Y151130D02*
X483044D01*
X481544D01*
Y160127D01*
X480045Y158628D01*
X468278Y189108D02*
X466778Y190607D01*
X463779D01*
X462280Y189108D01*
Y183109D01*
X463779Y181610D01*
X466778D01*
X468278Y183109D01*
X471277Y181610D02*
X474276D01*
X472777D01*
Y190607D01*
X471277Y189108D01*
X478775D02*
X480274Y190607D01*
X483273D01*
X484773Y189108D01*
Y183109D01*
X483273Y181610D01*
X480274D01*
X478775Y183109D01*
Y189108D01*
X619970Y178453D02*
X617849D01*
X615728Y176332D01*
Y174212D01*
X619970Y169970D01*
X622090D01*
X624211Y172091D01*
Y174212D01*
X631633Y179513D02*
X627392Y175272D01*
Y183754D01*
X626332Y184815D01*
X624211D01*
X622090Y182694D01*
Y180574D01*
X637995Y185875D02*
X633754Y181634D01*
Y190116D01*
X632693Y191177D01*
X630573D01*
X628452Y189056D01*
Y186935D01*
X676443Y243297D02*
X674943Y241797D01*
Y238798D01*
X676443Y237299D01*
X682441D01*
X683940Y238798D01*
Y241797D01*
X682441Y243297D01*
X683940Y252294D02*
Y246296D01*
X677942Y252294D01*
X676443D01*
X674943Y250794D01*
Y247795D01*
X676443Y246296D01*
X683940Y255293D02*
Y258292D01*
Y256792D01*
X674943D01*
X676443Y255293D01*
X564448Y350398D02*
X562948Y351897D01*
X559949D01*
X558450Y350398D01*
Y344399D01*
X559949Y342900D01*
X562948D01*
X564448Y344399D01*
X573445Y342900D02*
X567447D01*
X573445Y348898D01*
Y350398D01*
X571946Y351897D01*
X568947D01*
X567447Y350398D01*
X576444D02*
X577944Y351897D01*
X580943D01*
X582442Y350398D01*
Y344399D01*
X580943Y342900D01*
X577944D01*
X576444Y344399D01*
Y350398D01*
X461132Y317148D02*
X459633Y315648D01*
Y312649D01*
X461132Y311150D01*
X467131D01*
X468630Y312649D01*
Y315648D01*
X467131Y317148D01*
X468630Y320147D02*
Y323146D01*
Y321647D01*
X459633D01*
X461132Y320147D01*
X467131Y327645D02*
X468630Y329144D01*
Y332143D01*
X467131Y333643D01*
X461132D01*
X459633Y332143D01*
Y329144D01*
X461132Y327645D01*
X462632D01*
X464132Y329144D01*
Y333643D01*
X536858Y151008D02*
X535359Y152507D01*
X532360D01*
X530860Y151008D01*
Y145009D01*
X532360Y143510D01*
X535359D01*
X536858Y145009D01*
X539857Y143510D02*
X542856D01*
X541357D01*
Y152507D01*
X539857Y151008D01*
X553353Y152507D02*
X547355D01*
Y148008D01*
X550354Y149508D01*
X551853D01*
X553353Y148008D01*
Y145009D01*
X551853Y143510D01*
X548854D01*
X547355Y145009D01*
X536858Y164978D02*
X535359Y166477D01*
X532360D01*
X530860Y164978D01*
Y158980D01*
X532360Y157480D01*
X535359D01*
X536858Y158980D01*
X539857Y157480D02*
X542856D01*
X541357D01*
Y166477D01*
X539857Y164978D01*
X551853Y157480D02*
Y166477D01*
X547355Y161978D01*
X553353D01*
X295558Y278008D02*
X294058Y279507D01*
X291059D01*
X289560Y278008D01*
Y272010D01*
X291059Y270510D01*
X294058D01*
X295558Y272010D01*
X298557D02*
X300057Y270510D01*
X303056D01*
X304555Y272010D01*
Y278008D01*
X303056Y279507D01*
X300057D01*
X298557Y278008D01*
Y276508D01*
X300057Y275009D01*
X304555D01*
X215548Y274198D02*
X214049Y275697D01*
X211049D01*
X209550Y274198D01*
Y268200D01*
X211049Y266700D01*
X214049D01*
X215548Y268200D01*
X218547Y274198D02*
X220047Y275697D01*
X223046D01*
X224545Y274198D01*
Y272698D01*
X223046Y271199D01*
X224545Y269699D01*
Y268200D01*
X223046Y266700D01*
X220047D01*
X218547Y268200D01*
Y269699D01*
X220047Y271199D01*
X218547Y272698D01*
Y274198D01*
X220047Y271199D02*
X223046D01*
X186338Y276738D02*
X184839Y278237D01*
X181840D01*
X180340Y276738D01*
Y270739D01*
X181840Y269240D01*
X184839D01*
X186338Y270739D01*
X189337Y278237D02*
X195335D01*
Y276738D01*
X189337Y270739D01*
Y269240D01*
X77592Y220628D02*
X76093Y219128D01*
Y216129D01*
X77592Y214630D01*
X83590D01*
X85090Y216129D01*
Y219128D01*
X83590Y220628D01*
X76093Y229625D02*
X77592Y226626D01*
X80591Y223627D01*
X83590D01*
X85090Y225127D01*
Y228126D01*
X83590Y229625D01*
X82091D01*
X80591Y228126D01*
Y223627D01*
X176178Y297058D02*
X174678Y298557D01*
X171679D01*
X170180Y297058D01*
Y291059D01*
X171679Y289560D01*
X174678D01*
X176178Y291059D01*
X179177Y289560D02*
X182176D01*
X180677D01*
Y298557D01*
X179177Y297058D01*
X721360Y198227D02*
Y189230D01*
X725859D01*
X727358Y190730D01*
Y192229D01*
X725859Y193729D01*
X721360D01*
X725859D01*
X727358Y195228D01*
Y196728D01*
X725859Y198227D01*
X721360D01*
X736355Y189230D02*
X730357D01*
X736355Y195228D01*
Y196728D01*
X734856Y198227D01*
X731857D01*
X730357Y196728D01*
X722630Y157587D02*
Y148590D01*
X727129D01*
X728628Y150090D01*
Y151589D01*
X727129Y153089D01*
X722630D01*
X727129D01*
X728628Y154588D01*
Y156088D01*
X727129Y157587D01*
X722630D01*
X731627Y148590D02*
X734626D01*
X733127D01*
Y157587D01*
X731627Y156088D01*
X325657Y471023D02*
X322658D01*
X324157D01*
Y463526D01*
X322658Y462026D01*
X321158D01*
X319659Y463526D01*
X328656D02*
X330156Y462026D01*
X333155D01*
X334654Y463526D01*
Y469524D01*
X333155Y471023D01*
X330156D01*
X328656Y469524D01*
Y468024D01*
X330156Y466525D01*
X334654D01*
X167533Y378108D02*
Y375109D01*
Y376609D01*
X175030D01*
X176530Y375109D01*
Y373610D01*
X175030Y372110D01*
X176530Y381107D02*
Y384106D01*
Y382607D01*
X167533D01*
X169032Y381107D01*
Y388605D02*
X167533Y390104D01*
Y393103D01*
X169032Y394603D01*
X170532D01*
X172031Y393103D01*
Y391604D01*
Y393103D01*
X173531Y394603D01*
X175030D01*
X176530Y393103D01*
Y390104D01*
X175030Y388605D01*
X182773Y378108D02*
Y375109D01*
Y376609D01*
X190271D01*
X191770Y375109D01*
Y373610D01*
X190271Y372110D01*
X191770Y381107D02*
Y384106D01*
Y382607D01*
X182773D01*
X184272Y381107D01*
X191770Y394603D02*
Y388605D01*
X185772Y394603D01*
X184272D01*
X182773Y393103D01*
Y390104D01*
X184272Y388605D01*
X198013Y378108D02*
Y375109D01*
Y376609D01*
X205511D01*
X207010Y375109D01*
Y373610D01*
X205511Y372110D01*
X207010Y381107D02*
Y384106D01*
Y382607D01*
X198013D01*
X199512Y381107D01*
X207010Y388605D02*
Y391604D01*
Y390104D01*
X198013D01*
X199512Y388605D01*
X213253Y379378D02*
Y376379D01*
Y377878D01*
X220751D01*
X222250Y376379D01*
Y374879D01*
X220751Y373380D01*
X222250Y382377D02*
Y385376D01*
Y383877D01*
X213253D01*
X214752Y382377D01*
Y389875D02*
X213253Y391374D01*
Y394373D01*
X214752Y395873D01*
X220751D01*
X222250Y394373D01*
Y391374D01*
X220751Y389875D01*
X214752D01*
X185726Y63504D02*
X188725D01*
X187226D01*
Y72502D01*
X185726Y71002D01*
X110490Y70998D02*
X111989Y72497D01*
X114988D01*
X116488Y70998D01*
Y64999D01*
X114988Y63500D01*
X111989D01*
X110490Y64999D01*
Y70998D01*
X135890Y72497D02*
Y63500D01*
X140388D01*
X141888Y64999D01*
Y66499D01*
X140388Y67998D01*
X135890D01*
X140388D01*
X141888Y69498D01*
Y70998D01*
X140388Y72497D01*
X135890D01*
X146387Y63500D02*
X149386D01*
X150885Y64999D01*
Y67998D01*
X149386Y69498D01*
X146387D01*
X144887Y67998D01*
Y64999D01*
X146387Y63500D01*
X155384D02*
X158383D01*
X159882Y64999D01*
Y67998D01*
X158383Y69498D01*
X155384D01*
X153884Y67998D01*
Y64999D01*
X155384Y63500D01*
X164381Y70998D02*
Y69498D01*
X162881D01*
X165880D01*
X164381D01*
Y64999D01*
X165880Y63500D01*
D32*
X502804Y250000D02*
G03*
X502804Y250000I-2000J0D01*
G01*
D51*
X117480Y386270D02*
X121030D01*
X117480Y378270D02*
X121030D01*
X509236Y250000D02*
X516240Y242995D01*
X509236Y250000D02*
X516240Y257005D01*
X572995Y186240D02*
X580000Y179236D01*
X587005Y186240D01*
X580000Y320764D02*
X587005Y313760D01*
X572995D02*
X580000Y320764D01*
X643760Y242995D02*
X650764Y250000D01*
X643760Y257005D02*
X650764Y250000D01*
X217360Y28830D02*
Y32380D01*
X209360Y28830D02*
Y32380D01*
X773050Y214440D02*
X776600D01*
X773050Y222440D02*
X776600D01*
X773050Y111570D02*
X776600D01*
X773050Y119570D02*
X776600D01*
X284100Y58230D02*
X287650D01*
X284100Y66230D02*
X287650D01*
X316870Y442150D02*
X320420D01*
X316870Y434150D02*
X320420D01*
X316870Y484060D02*
X320420D01*
X316870Y476060D02*
X320420D01*
X284100Y9970D02*
X287650D01*
X284100Y17970D02*
X287650D01*
X25020Y224600D02*
X28570D01*
X25020Y232600D02*
X28570D01*
X249810Y234760D02*
X253360D01*
X249810Y242760D02*
X253360D01*
X117730Y318580D02*
X121280D01*
X117730Y326580D02*
X121280D01*
X117730Y363030D02*
X121280D01*
X117730Y371030D02*
X121280D01*
X117730Y347790D02*
X121280D01*
X117730Y355790D02*
X121280D01*
X117730Y333820D02*
X121280D01*
X117730Y341820D02*
X121280D01*
X284100Y50990D02*
X287650D01*
X284100Y42990D02*
X287650D01*
X286766Y44450D02*
Y49588D01*
X284226Y46990D02*
X286766Y44450D01*
Y49530D02*
Y49588D01*
Y49530D02*
Y49588D01*
X284197Y47019D02*
X286766Y49588D01*
X284100Y33210D02*
X287650D01*
X284100Y25210D02*
X287650D01*
X286766Y26670D02*
Y31808D01*
X284226Y29210D02*
X286766Y26670D01*
Y31750D02*
Y31808D01*
Y31750D02*
Y31808D01*
X284197Y29239D02*
X286766Y31808D01*
X25020Y251650D02*
X28570D01*
X25020Y243650D02*
X28570D01*
X27686Y245110D02*
Y250248D01*
X25146Y247650D02*
X27686Y245110D01*
Y250190D02*
Y250248D01*
Y250190D02*
Y250248D01*
X25117Y247679D02*
X27686Y250248D01*
X456820Y196660D02*
X460370D01*
X456820Y204660D02*
X460370D01*
X456820Y220790D02*
X460370D01*
X456820Y228790D02*
X460370D01*
X45090Y132270D02*
X48640D01*
X45090Y124270D02*
X48640D01*
X444120Y152210D02*
X447670D01*
X444120Y160210D02*
X447670D01*
X442850Y182690D02*
X446400D01*
X442850Y190690D02*
X446400D01*
X600348Y160235D02*
X602858Y162745D01*
X606005Y154578D02*
X608515Y157088D01*
X675450Y216540D02*
Y220090D01*
X683450Y216540D02*
Y220090D01*
X597790Y342710D02*
X601340D01*
X597790Y350710D02*
X601340D01*
X468820Y291720D02*
Y295270D01*
X460820Y291720D02*
Y295270D01*
X511180Y150050D02*
X514730D01*
X511180Y142050D02*
X514730D01*
X511180Y165290D02*
X514730D01*
X511180Y157290D02*
X514730D01*
X219900Y247270D02*
Y250820D01*
X211900Y247270D02*
Y250820D01*
X200280Y290640D02*
X203830D01*
X200280Y298640D02*
X203830D01*
D52*
X177800Y227076D02*
Y249174D01*
X196400Y227076D02*
Y248920D01*
X247460Y262810D02*
X255460D01*
X247460Y252810D02*
X255460D01*
X115380Y298530D02*
X123380D01*
X115380Y308530D02*
X123380D01*
X302180Y244920D02*
Y252920D01*
X292180Y244920D02*
Y252920D01*
X86280Y246190D02*
Y254190D01*
X76280Y246190D02*
Y254190D01*
D53*
X162597Y113797D02*
X160598Y115796D01*
X156599D01*
X154600Y113797D01*
Y111797D01*
X156599Y109798D01*
X160598D01*
X162597Y107799D01*
Y105799D01*
X160598Y103800D01*
X156599D01*
X154600Y105799D01*
X166596Y115796D02*
X174594D01*
X170595D01*
Y103800D01*
X178592D02*
Y115796D01*
X182591Y111797D01*
X186590Y115796D01*
Y103800D01*
X190588Y113797D02*
X192588Y115796D01*
X196586D01*
X198586Y113797D01*
Y111797D01*
X196586Y109798D01*
X194587D01*
X196586D01*
X198586Y107799D01*
Y105799D01*
X196586Y103800D01*
X192588D01*
X190588Y105799D01*
X210582Y103800D02*
X202584D01*
X210582Y111797D01*
Y113797D01*
X208582Y115796D01*
X204584D01*
X202584Y113797D01*
X214581Y115796D02*
Y103800D01*
X222578D01*
X232575D02*
Y115796D01*
X226577Y109798D01*
X234574D01*
X238573Y113797D02*
X240572Y115796D01*
X244571D01*
X246570Y113797D01*
Y111797D01*
X244571Y109798D01*
X242572D01*
X244571D01*
X246570Y107799D01*
Y105799D01*
X244571Y103800D01*
X240572D01*
X238573Y105799D01*
X250569Y103800D02*
X254568D01*
X252568D01*
Y115796D01*
X250569Y113797D01*
X260566Y103800D02*
Y115796D01*
X266564D01*
X268563Y113797D01*
Y109798D01*
X266564Y107799D01*
X260566D01*
X264564D02*
X268563Y103800D01*
X280559Y113797D02*
X278560Y115796D01*
X274561D01*
X272562Y113797D01*
Y105799D01*
X274561Y103800D01*
X278560D01*
X280559Y105799D01*
X284558Y115796D02*
X292555D01*
X288557D01*
Y103800D01*
X304552Y115796D02*
X300553Y113797D01*
X296554Y109798D01*
Y105799D01*
X298553Y103800D01*
X302552D01*
X304552Y105799D01*
Y107799D01*
X302552Y109798D01*
X296554D01*
M02*
