M48
;Layer_Color=9474304
;FILE_FORMAT=4:4
METRIC,LZ
;TYPE=PLATED
T1F00S00C0.3000
T3F00S00C0.7000
T4F00S00C0.8000
T5F00S00C3.0000
%
T01
X0082Y000125
X00832374Y00017626
X008375Y0003
X00832374Y00042374
X0082Y000475
X00807626Y00042374
X008025Y0003
X00807626Y00017626
X0076073Y0006858
X00753167Y0009906
Y0010541
X00746816
Y0009906
X0068326Y0017653
Y0018288
X00586363Y00190877
X00573533Y001905
X0058166Y0017272
X005461Y0018415
X0053975
X0052324Y0017399
X0052959Y0016764
X0054356Y0010033
X0053594Y0009144
X0056769Y0012446
X00438206Y00127
Y0013335
X00431856
Y00127
X0041783Y0008001
X0039243Y0006223
X0034798Y0004191
X0034163
Y0003556
X0034798
X0030607Y0007366
X0031242Y0020193
X0031877
X0018669Y0018161
X0011049Y0009017
X00042374Y00042374
X0003Y000475
X00017626Y00042374
Y00017626
X0003Y000125
X00042374Y00017626
X000475Y0003
X0003175Y0020066
X000254
X000125Y0003
Y0047
X00017626Y00482374
X0003Y004875
X00042374Y00482374
X000475Y0047
X00042374Y00457626
X0003Y004525
X00017626Y00457626
X0002794Y0037465
X0003429
Y003683
X0002794
Y0032385
Y003175
X0003429
Y0032385
X0005461Y0033782
Y0034798
X0008763Y0036449
X0009271
Y0036957
X0008763
Y0032207
Y0031699
X0009271
Y0032207
X0012446Y002921
X0013081Y002794
X0014097Y0035941
X0015621
X0017907Y003683
X0020955
Y0039624
X0024765Y0039751
Y0040386
X0023749Y0041148
X0020066Y0043942
X0019431
Y0044577
X0020066
X001905Y0034798
Y003429
X0024511Y0033909
X0024003Y0033401
X00268186Y0032639
X0027432Y00330708
X00278955Y00292099
X0024511Y0028956
X0023876
Y0029591
X0024511
X0036195
X003683
Y0030226
X0036195
X004064
Y0029591
X0038227Y0035306
X0037592
Y0035941
X0038227
X0036449Y0042291
X0034544Y0044831
X0033782Y0044704
X003429Y0045974
X0031877Y0020828
X0031242
X0003175Y0020701
X000254
X0044069Y002286
X0048768Y0021971
X004953
X0050419Y0022733
X0052578Y0023876
X0048641Y0026162
X0048006
Y0026797
X0048641
X00478155Y00304165
X0045974Y0032258
X0044958Y0033274
X0045339Y0035179
X00442722Y00312928
X0041275Y0030226
Y0029591
X0042799Y0040894
X0044069Y0044069
X0055845Y0032639
X0056007Y0028067
Y0027432
X0056896Y0026035
X0057531
X0058166
X0058801
X0059436
X0060071
X0060706
X0061341
X0061976
X0062484Y0023749
X0060706Y0021844
X0060071
X0059436
X0058801
X00602037Y0027432
Y0028067
X0062865Y0031623
X0064135Y0032131
X0066675Y0031877
X0067945Y0030353
X0069977Y0032639
X0071628Y0033147
X0075438Y0036449
Y0037084
X0076073
Y0036449
X0075946Y0028575
X0075311
Y002794
X0075946
X0078359Y002286
X0068834
X006223Y00331191
X0061087Y0036195
Y003683
X0060452
Y0036195
X00807626Y00457626
X008025Y0047
X00807626Y00482374
X0082Y004875
X00832374Y00482374
X008375Y0047
X00832374Y00457626
X0082Y004525
X0081407Y0021717
T03
X0005342Y0031656
Y0037436
T04
X0042799Y0001778
Y0004318
X0045339
X0047879
X0050419
X0052959
X0055499
X0058039
X0060579
X0063119
X0065659
Y0001778
X0063119
X0060579
X0058039
X0055499
X0052959
X0050419
X0047879
X0045339
X0068199
X0070739
X0073279
Y0004318
X0070739
X0068199
X0040259
X0037719
Y0001778
X0040259
X00174244Y00028448
X00148844
X00123444
X0012573Y004699
X0010033
X0015113
X0017653
X0026289Y0038481
X0028829
X0031369
X0033909
X0037719Y004572
Y004826
X0040259
Y004572
X0042799
Y004826
X0045339
X0047879
X0050419
X0052959
X0055499
X0058039
X0060579
X0063119
X0065659
Y004572
X0063119
X0060579
X0058039
X0055499
X0052959
X0050419
X0047879
X0045339
X0068199
X0070739
X0073279
Y004826
X0070739
X0068199
X008255Y0040005
Y0037465
Y0034925
Y0032385
Y0029845
T05
X0082Y0003
X0003
Y0047
X0082
M30
