G04 Layer_Color=8421504*
%FSLAX44Y44*%
%MOMM*%
G71*
G01*
G75*
%ADD10R,1.0000X1.0000*%
%ADD11R,2.0000X1.8000*%
%ADD12R,3.2000X2.0000*%
%ADD13R,1.5000X1.8000*%
%ADD14R,2.2000X1.2000*%
%ADD15R,1.5000X1.2000*%
G04:AMPARAMS|DCode=16|XSize=1.6mm|YSize=0.25mm|CornerRadius=0mm|HoleSize=0mm|Usage=FLASHONLY|Rotation=225.000|XOffset=0mm|YOffset=0mm|HoleType=Round|Shape=Rectangle|*
%AMROTATEDRECTD16*
4,1,4,0.4773,0.6541,0.6541,0.4773,-0.4773,-0.6541,-0.6541,-0.4773,0.4773,0.6541,0.0*
%
%ADD16ROTATEDRECTD16*%

G04:AMPARAMS|DCode=17|XSize=1.6mm|YSize=0.25mm|CornerRadius=0mm|HoleSize=0mm|Usage=FLASHONLY|Rotation=135.000|XOffset=0mm|YOffset=0mm|HoleType=Round|Shape=Rectangle|*
%AMROTATEDRECTD17*
4,1,4,0.6541,-0.4773,0.4773,-0.6541,-0.6541,0.4773,-0.4773,0.6541,0.6541,-0.4773,0.0*
%
%ADD17ROTATEDRECTD17*%

%ADD18R,2.0000X0.6000*%
%ADD19O,2.0000X0.6000*%
%ADD20R,2.0000X2.0000*%
%ADD21R,1.0000X1.0000*%
%ADD22R,1.2000X1.6300*%
%ADD23O,0.3000X0.2000*%
%ADD24O,0.2000X0.3000*%
%ADD25P,1.4142X4X90.0*%
%ADD26R,1.6300X1.2000*%
%ADD27R,2.0000X0.2500*%
D10*
X110270Y382270D02*
D03*
X128240D02*
D03*
X783810Y218440D02*
D03*
X765840D02*
D03*
X783810Y115570D02*
D03*
X765840D02*
D03*
X294860Y62230D02*
D03*
X276890D02*
D03*
X309660Y438150D02*
D03*
X327630D02*
D03*
X309660Y480060D02*
D03*
X327630D02*
D03*
X294860Y13970D02*
D03*
X276890D02*
D03*
X35780Y228600D02*
D03*
X17810D02*
D03*
X260570Y238760D02*
D03*
X242600D02*
D03*
X128490Y322580D02*
D03*
X110520D02*
D03*
X128490Y367030D02*
D03*
X110520D02*
D03*
X128490Y351790D02*
D03*
X110520D02*
D03*
X128490Y337820D02*
D03*
X110520D02*
D03*
X276890Y46990D02*
D03*
X294860D02*
D03*
X276890Y29210D02*
D03*
X294860D02*
D03*
X17810Y247650D02*
D03*
X35780D02*
D03*
X467580Y200660D02*
D03*
X449610D02*
D03*
X467580Y224790D02*
D03*
X449610D02*
D03*
X37880Y128270D02*
D03*
X55850D02*
D03*
X454880Y156210D02*
D03*
X436910D02*
D03*
X453610Y186690D02*
D03*
X435640D02*
D03*
X608550Y346710D02*
D03*
X590580D02*
D03*
X503970Y146050D02*
D03*
X521940D02*
D03*
X503970Y161290D02*
D03*
X521940D02*
D03*
X211040Y294640D02*
D03*
X193070D02*
D03*
D11*
X187198Y220980D02*
D03*
Y255270D02*
D03*
X16334Y291830D02*
D03*
X58706D02*
D03*
X58134Y399090D02*
D03*
X16334D02*
D03*
D12*
X130810Y203410D02*
D03*
D13*
X153810Y261410D02*
D03*
X130810D02*
D03*
X107810D02*
D03*
D14*
X419190Y206170D02*
D03*
Y228170D02*
D03*
D15*
X415798Y155702D02*
D03*
Y175006D02*
D03*
X393192D02*
D03*
Y155702D02*
D03*
D16*
X647175Y264142D02*
D03*
X643640Y267678D02*
D03*
X640104Y271213D02*
D03*
X636569Y274749D02*
D03*
X633033Y278284D02*
D03*
X629497Y281820D02*
D03*
X625962Y285355D02*
D03*
X622426Y288891D02*
D03*
X618891Y292426D02*
D03*
X615355Y295962D02*
D03*
X611820Y299498D02*
D03*
X608284Y303033D02*
D03*
X604749Y306569D02*
D03*
X601213Y310104D02*
D03*
X597678Y313640D02*
D03*
X594142Y317175D02*
D03*
X565858Y182825D02*
D03*
X562322Y186360D02*
D03*
X558787Y189896D02*
D03*
X555251Y193431D02*
D03*
X551716Y196967D02*
D03*
X548180Y200502D02*
D03*
X544645Y204038D02*
D03*
X541109Y207574D02*
D03*
X537574Y211109D02*
D03*
X534038Y214645D02*
D03*
X530503Y218180D02*
D03*
X526967Y221716D02*
D03*
X523432Y225251D02*
D03*
X516360Y232322D02*
D03*
X519896Y228787D02*
D03*
X512825Y235858D02*
D03*
D17*
X565858Y317175D02*
D03*
X558787Y310104D02*
D03*
X562322Y313640D02*
D03*
X555251Y306569D02*
D03*
X551716Y303033D02*
D03*
X548180Y299498D02*
D03*
X544645Y295962D02*
D03*
X541109Y292426D02*
D03*
X537574Y288891D02*
D03*
X534038Y285355D02*
D03*
X530503Y281820D02*
D03*
X526967Y278284D02*
D03*
X523432Y274749D02*
D03*
X519896Y271213D02*
D03*
X516360Y267678D02*
D03*
X512825Y264142D02*
D03*
X647175Y235858D02*
D03*
X643640Y232322D02*
D03*
X640104Y228787D02*
D03*
X636569Y225251D02*
D03*
X633033Y221716D02*
D03*
X629497Y218180D02*
D03*
X625962Y214645D02*
D03*
X622426Y211109D02*
D03*
X618891Y207574D02*
D03*
X615355Y204038D02*
D03*
X611820Y200502D02*
D03*
X608284Y196967D02*
D03*
X604749Y193431D02*
D03*
X601213Y189896D02*
D03*
X597678Y186360D02*
D03*
X594142Y182825D02*
D03*
D18*
X224460Y478790D02*
D03*
X228930Y313690D02*
D03*
D19*
X224460Y466090D02*
D03*
Y453390D02*
D03*
Y440690D02*
D03*
X278460Y478790D02*
D03*
Y466090D02*
D03*
Y453390D02*
D03*
Y440690D02*
D03*
X228930Y326390D02*
D03*
Y339090D02*
D03*
Y351790D02*
D03*
X174930Y313690D02*
D03*
Y326390D02*
D03*
Y339090D02*
D03*
Y351790D02*
D03*
D20*
X18420Y100330D02*
D03*
X98420D02*
D03*
X751210Y187960D02*
D03*
X831210D02*
D03*
X751210Y147320D02*
D03*
X831210D02*
D03*
D21*
X213360Y39590D02*
D03*
Y21620D02*
D03*
X679450Y209330D02*
D03*
Y227300D02*
D03*
X464820Y302480D02*
D03*
Y284510D02*
D03*
X215900Y258030D02*
D03*
Y240060D02*
D03*
D22*
X261960Y257810D02*
D03*
X240960D02*
D03*
X108880Y303530D02*
D03*
X129880D02*
D03*
D23*
X228854Y36474D02*
D03*
Y43942D02*
D03*
X173228Y407772D02*
D03*
Y400304D02*
D03*
X187198Y407772D02*
D03*
Y400304D02*
D03*
X201930Y408026D02*
D03*
Y400558D02*
D03*
X217170Y408026D02*
D03*
Y400558D02*
D03*
D24*
X738607Y329692D02*
D03*
X731140D02*
D03*
X738607Y343662D02*
D03*
X731140D02*
D03*
X447714Y256032D02*
D03*
X440246D02*
D03*
X447777Y241808D02*
D03*
X440309D02*
D03*
X447777Y268478D02*
D03*
X440309D02*
D03*
X306603Y452882D02*
D03*
X314071D02*
D03*
X285012Y330708D02*
D03*
X292481D02*
D03*
X285012Y318008D02*
D03*
X292481D02*
D03*
X285012Y291338D02*
D03*
X292481D02*
D03*
X285012Y304037D02*
D03*
X292481D02*
D03*
X306603Y465582D02*
D03*
X314071D02*
D03*
D25*
X598078Y152308D02*
D03*
X610785Y165015D02*
D03*
D26*
X297180Y238420D02*
D03*
Y259420D02*
D03*
X81280Y239690D02*
D03*
Y260690D02*
D03*
D27*
X69420Y375460D02*
D03*
Y367960D02*
D03*
Y362960D02*
D03*
Y352960D02*
D03*
Y337960D02*
D03*
Y322960D02*
D03*
Y327960D02*
D03*
Y315460D02*
D03*
Y312960D02*
D03*
Y320460D02*
D03*
Y332960D02*
D03*
Y342960D02*
D03*
Y347960D02*
D03*
Y357960D02*
D03*
Y370460D02*
D03*
Y377960D02*
D03*
M02*
