G04 Layer_Color=32896*
%FSLAX44Y44*%
%MOMM*%
G71*
G01*
G75*
%ADD28C,0.2540*%
%ADD29C,0.2000*%
%ADD31C,0.3000*%
%ADD51C,0.1000*%
D28*
X201644Y260096D02*
G03*
X201644Y260096I-2000J0D01*
G01*
D29*
X191615Y365760D02*
G03*
X197965Y365760I3175J0D01*
G01*
X209440D01*
X180140D02*
X191615D01*
X180140Y264160D02*
Y365760D01*
Y264160D02*
X209440D01*
Y365760D01*
X207010Y227330D02*
X239010D01*
X207010D02*
Y252330D01*
X239010D01*
Y227330D02*
Y252330D01*
X258728Y287142D02*
X257229Y285643D01*
X254230D01*
X252730Y287142D01*
Y293141D01*
X254230Y294640D01*
X257229D01*
X258728Y293141D01*
X261727Y287142D02*
X263227Y285643D01*
X266226D01*
X267725Y287142D01*
Y288642D01*
X266226Y290142D01*
X264726D01*
X266226D01*
X267725Y291641D01*
Y293141D01*
X266226Y294640D01*
X263227D01*
X261727Y293141D01*
X228600Y378567D02*
Y371069D01*
X227101Y369570D01*
X224102D01*
X222602Y371069D01*
Y378567D01*
X213605Y369570D02*
X219603D01*
X213605Y375568D01*
Y377068D01*
X215104Y378567D01*
X218103D01*
X219603Y377068D01*
X242570Y219817D02*
X236572Y210820D01*
Y219817D02*
X242570Y210820D01*
X233573D02*
X230574D01*
X232073D01*
Y219817D01*
X233573Y218318D01*
X142592Y257917D02*
X145591D01*
X144092D01*
Y250420D01*
X145591Y248920D01*
X147091D01*
X148590Y250420D01*
X139593Y257917D02*
X133595D01*
Y256418D01*
X139593Y250420D01*
Y248920D01*
X181962Y398658D02*
X183461Y400157D01*
X186460D01*
X187960Y398658D01*
Y392659D01*
X186460Y391160D01*
X183461D01*
X181962Y392659D01*
X172965Y391160D02*
X178963D01*
X172965Y397158D01*
Y398658D01*
X174464Y400157D01*
X177463D01*
X178963Y398658D01*
X281022Y233558D02*
X282521Y235057D01*
X285520D01*
X287020Y233558D01*
Y227560D01*
X285520Y226060D01*
X282521D01*
X281022Y227560D01*
X272025Y235057D02*
X278023D01*
Y230558D01*
X275024Y232058D01*
X273524D01*
X272025Y230558D01*
Y227560D01*
X273524Y226060D01*
X276523D01*
X278023Y227560D01*
X194662Y218318D02*
X196161Y219817D01*
X199160D01*
X200660Y218318D01*
Y212320D01*
X199160Y210820D01*
X196161D01*
X194662Y212320D01*
X187164Y210820D02*
Y219817D01*
X191663Y215319D01*
X185665D01*
X142592Y238867D02*
X145591D01*
X144092D01*
Y231369D01*
X145591Y229870D01*
X147091D01*
X148590Y231369D01*
X133595Y238867D02*
X136594Y237368D01*
X139593Y234368D01*
Y231369D01*
X138093Y229870D01*
X135094D01*
X133595Y231369D01*
Y232869D01*
X135094Y234368D01*
X139593D01*
X572892Y278482D02*
X571393Y279981D01*
Y282980D01*
X572892Y284480D01*
X578890D01*
X580390Y282980D01*
Y279981D01*
X578890Y278482D01*
X580390Y275483D02*
Y272484D01*
Y273983D01*
X571393D01*
X572892Y275483D01*
X571393Y261987D02*
X572892Y264986D01*
X575891Y267985D01*
X578890D01*
X580390Y266486D01*
Y263487D01*
X578890Y261987D01*
X577391D01*
X575891Y263487D01*
Y267985D01*
X590672Y278482D02*
X589173Y279981D01*
Y282980D01*
X590672Y284480D01*
X596670D01*
X598170Y282980D01*
Y279981D01*
X596670Y278482D01*
X598170Y275483D02*
Y272484D01*
Y273983D01*
X589173D01*
X590672Y275483D01*
X589173Y267985D02*
Y261987D01*
X590672D01*
X596670Y267985D01*
X598170D01*
X608452Y278482D02*
X606953Y279981D01*
Y282980D01*
X608452Y284480D01*
X614450D01*
X615950Y282980D01*
Y279981D01*
X614450Y278482D01*
X615950Y275483D02*
Y272484D01*
Y273983D01*
X606953D01*
X608452Y275483D01*
Y267985D02*
X606953Y266486D01*
Y263487D01*
X608452Y261987D01*
X609952D01*
X611451Y263487D01*
X612951Y261987D01*
X614450D01*
X615950Y263487D01*
Y266486D01*
X614450Y267985D01*
X612951D01*
X611451Y266486D01*
X609952Y267985D01*
X608452D01*
X611451Y266486D02*
Y263487D01*
X683260Y135997D02*
Y129999D01*
X680261Y127000D01*
X677262Y129999D01*
Y135997D01*
X668265Y134498D02*
X669764Y135997D01*
X672763D01*
X674263Y134498D01*
Y132998D01*
X672763Y131498D01*
X669764D01*
X668265Y129999D01*
Y128499D01*
X669764Y127000D01*
X672763D01*
X674263Y128499D01*
X659268Y134498D02*
X660767Y135997D01*
X663766D01*
X665266Y134498D01*
Y132998D01*
X663766Y131498D01*
X660767D01*
X659268Y129999D01*
Y128499D01*
X660767Y127000D01*
X663766D01*
X665266Y128499D01*
X656269Y127000D02*
Y132998D01*
X653270Y135997D01*
X650271Y132998D01*
Y127000D01*
Y131498D01*
X656269D01*
X683260Y158857D02*
Y152859D01*
X680261Y149860D01*
X677262Y152859D01*
Y158857D01*
X674263D02*
Y149860D01*
X669764D01*
X668265Y151360D01*
Y157358D01*
X669764Y158857D01*
X674263D01*
X665266D02*
Y149860D01*
X660767D01*
X659268Y151360D01*
Y157358D01*
X660767Y158857D01*
X665266D01*
X656269Y149860D02*
Y155858D01*
X653270Y158857D01*
X650271Y155858D01*
Y149860D01*
Y154359D01*
X656269D01*
X675992Y88778D02*
X677492Y90277D01*
X680490D01*
X681990Y88778D01*
Y82780D01*
X680490Y81280D01*
X677492D01*
X675992Y82780D01*
Y85779D01*
X678991D01*
X672993Y81280D02*
Y90277D01*
X666995Y81280D01*
Y90277D01*
X663996D02*
Y81280D01*
X659497D01*
X657998Y82780D01*
Y88778D01*
X659497Y90277D01*
X663996D01*
X683260Y113137D02*
Y107139D01*
X680261Y104140D01*
X677262Y107139D01*
Y113137D01*
X674263D02*
Y104140D01*
X669764D01*
X668265Y105639D01*
Y107139D01*
X669764Y108638D01*
X674263D01*
X669764D01*
X668265Y110138D01*
Y111638D01*
X669764Y113137D01*
X674263D01*
X665266Y104140D02*
Y110138D01*
X662267Y113137D01*
X659268Y110138D01*
Y104140D01*
Y108638D01*
X665266D01*
X656269Y113137D02*
X650271D01*
X653270D01*
Y104140D01*
D31*
X341937Y180600D02*
X344603Y183266D01*
X349934D01*
X352600Y180600D01*
Y177934D01*
X349934Y175269D01*
X344603D01*
X341937Y172603D01*
Y169937D01*
X344603Y167271D01*
X349934D01*
X352600Y169937D01*
X336605Y183266D02*
X325942D01*
X331274D01*
Y167271D01*
X320610D02*
Y183266D01*
X315279Y177934D01*
X309947Y183266D01*
Y167271D01*
X304616Y180600D02*
X301950Y183266D01*
X296618D01*
X293952Y180600D01*
Y177934D01*
X296618Y175269D01*
X299284D01*
X296618D01*
X293952Y172603D01*
Y169937D01*
X296618Y167271D01*
X301950D01*
X304616Y169937D01*
X277957Y167271D02*
X288621D01*
X277957Y177934D01*
Y180600D01*
X280623Y183266D01*
X285955D01*
X288621Y180600D01*
X272626Y183266D02*
Y167271D01*
X261963D01*
X248634D02*
Y183266D01*
X256631Y175269D01*
X245968D01*
X240636Y180600D02*
X237971Y183266D01*
X232639D01*
X229973Y180600D01*
Y177934D01*
X232639Y175269D01*
X235305D01*
X232639D01*
X229973Y172603D01*
Y169937D01*
X232639Y167271D01*
X237971D01*
X240636Y169937D01*
X224641Y167271D02*
X219310D01*
X221976D01*
Y183266D01*
X224641Y180600D01*
X211313Y167271D02*
Y183266D01*
X203315D01*
X200649Y180600D01*
Y175269D01*
X203315Y172603D01*
X211313D01*
X205981D02*
X200649Y167271D01*
X184655Y180600D02*
X187320Y183266D01*
X192652D01*
X195318Y180600D01*
Y169937D01*
X192652Y167271D01*
X187320D01*
X184655Y169937D01*
X179323Y183266D02*
X168660D01*
X173991D01*
Y167271D01*
X152665Y183266D02*
X157997Y180600D01*
X163328Y175269D01*
Y169937D01*
X160662Y167271D01*
X155331D01*
X152665Y169937D01*
Y172603D01*
X155331Y175269D01*
X163328D01*
X120675Y183266D02*
X131338D01*
Y167271D01*
X120675D01*
X131338Y175269D02*
X126007D01*
X115344Y183266D02*
Y172603D01*
X110012Y167271D01*
X104680Y172603D01*
Y183266D01*
X99349D02*
Y167271D01*
X91351D01*
X88686Y169937D01*
Y172603D01*
X91351Y175269D01*
X99349D01*
X91351D01*
X88686Y177934D01*
Y180600D01*
X91351Y183266D01*
X99349D01*
X341937Y140878D02*
X352600D01*
X341937Y151541D01*
Y154206D01*
X344603Y156872D01*
X349934D01*
X352600Y154206D01*
X336605D02*
X333939Y156872D01*
X328608D01*
X325942Y154206D01*
Y143543D01*
X328608Y140878D01*
X333939D01*
X336605Y143543D01*
Y154206D01*
X309947Y140878D02*
X320610D01*
X309947Y151541D01*
Y154206D01*
X312613Y156872D01*
X317945D01*
X320610Y154206D01*
X293952Y140878D02*
X304616D01*
X293952Y151541D01*
Y154206D01*
X296618Y156872D01*
X301950D01*
X304616Y154206D01*
X288621Y140878D02*
X277957Y151541D01*
X272626Y140878D02*
X267294D01*
X269960D01*
Y156872D01*
X272626Y154206D01*
X248634Y140878D02*
X259297D01*
X248634Y151541D01*
Y154206D01*
X251299Y156872D01*
X256631D01*
X259297Y154206D01*
X243302Y140878D02*
X232639Y151541D01*
X227307Y154206D02*
X224641Y156872D01*
X219310D01*
X216644Y154206D01*
Y143543D01*
X219310Y140878D01*
X224641D01*
X227307Y143543D01*
Y154206D01*
X211313D02*
X208647Y156872D01*
X203315D01*
X200649Y154206D01*
Y151541D01*
X203315Y148875D01*
X205981D01*
X203315D01*
X200649Y146209D01*
Y143543D01*
X203315Y140878D01*
X208647D01*
X211313Y143543D01*
X352600Y130479D02*
Y127813D01*
X347268Y122481D01*
X341937Y127813D01*
Y130479D01*
X347268Y122481D02*
Y114484D01*
X336605Y125147D02*
Y117149D01*
X333939Y114484D01*
X325942D01*
Y125147D01*
X320610Y122481D02*
X309947D01*
X304616Y114484D02*
Y125147D01*
X299284Y130479D01*
X293952Y125147D01*
Y114484D01*
Y122481D01*
X304616D01*
X288621Y114484D02*
Y125147D01*
X280623D01*
X277957Y122481D01*
Y114484D01*
X245968Y127813D02*
X248634Y130479D01*
X253965D01*
X256631Y127813D01*
Y117149D01*
X253965Y114484D01*
X248634D01*
X245968Y117149D01*
X240636Y130479D02*
Y114484D01*
Y122481D01*
X237971Y125147D01*
X232639D01*
X229973Y122481D01*
Y114484D01*
X216644D02*
X221976D01*
X224641Y117149D01*
Y122481D01*
X221976Y125147D01*
X216644D01*
X213978Y122481D01*
Y119815D01*
X224641D01*
X208647Y114484D02*
Y125147D01*
X200649D01*
X197983Y122481D01*
Y114484D01*
X352600Y104085D02*
Y93422D01*
X347268Y88090D01*
X341937Y93422D01*
Y104085D01*
X328608Y88090D02*
X333939D01*
X336605Y90756D01*
Y96087D01*
X333939Y98753D01*
X328608D01*
X325942Y96087D01*
Y93422D01*
X336605D01*
X320610Y98753D02*
Y88090D01*
Y93422D01*
X317945Y96087D01*
X315279Y98753D01*
X312613D01*
X304616D02*
X301950D01*
Y96087D01*
X304616D01*
Y98753D01*
Y90756D02*
X301950D01*
Y88090D01*
X304616D01*
Y90756D01*
X291287Y104085D02*
Y88090D01*
X283289D01*
X280623Y90756D01*
Y93422D01*
X283289Y96087D01*
X291287D01*
X283289D01*
X280623Y98753D01*
Y101419D01*
X283289Y104085D01*
X291287D01*
D51*
X260540Y310520D02*
Y314070D01*
X252540Y310520D02*
Y314070D01*
X195770Y238130D02*
Y241680D01*
X187770Y238130D02*
Y241680D01*
X250000Y238380D02*
Y241930D01*
X258000Y238380D02*
Y241930D01*
X172090Y377000D02*
X175640D01*
X172090Y385000D02*
X175640D01*
X572580Y239400D02*
Y242950D01*
X580580Y239400D02*
Y242950D01*
X590360Y239400D02*
Y242950D01*
X598360Y239400D02*
Y242950D01*
X608140Y239400D02*
Y242950D01*
X616140Y239400D02*
Y242950D01*
M02*
