G04 Layer_Color=16711935*
%FSLAX44Y44*%
%MOMM*%
G71*
G01*
G75*
%ADD55R,1.2400X0.9900*%
%ADD57R,1.2032X1.2032*%
%ADD62R,1.7032X1.4032*%
%ADD68R,1.2032X1.2032*%
%ADD71O,0.4032X0.5032*%
%ADD75O,1.7032X2.2032*%
%ADD76C,2.2032*%
%ADD77C,4.2032*%
%ADD78C,0.9032*%
%ADD79O,2.7032X1.2032*%
%ADD80O,2.4032X1.2032*%
%ADD81C,0.5032*%
%ADD82R,1.6032X0.8032*%
%ADD83R,1.7032X1.7032*%
%ADD84R,1.7032X1.7032*%
D55*
X158970Y251220D02*
D03*
Y235980D02*
D03*
D57*
X164880Y381000D02*
D03*
X182850D02*
D03*
D62*
X234188Y249428D02*
D03*
Y230124D02*
D03*
X211582D02*
D03*
Y249428D02*
D03*
D68*
X256540Y303310D02*
D03*
Y321280D02*
D03*
X191770Y230920D02*
D03*
Y248890D02*
D03*
X254000Y249140D02*
D03*
Y231170D02*
D03*
X576580Y250160D02*
D03*
Y232190D02*
D03*
X594360Y250160D02*
D03*
Y232190D02*
D03*
X612140Y250160D02*
D03*
Y232190D02*
D03*
D71*
X162916Y251206D02*
D03*
X155448D02*
D03*
X162916Y235966D02*
D03*
X155448D02*
D03*
D75*
X631190Y43180D02*
D03*
X605790D02*
D03*
X656590D02*
D03*
X580390D02*
D03*
X504190D02*
D03*
X529590D02*
D03*
X554990D02*
D03*
X453390D02*
D03*
X427990D02*
D03*
X402590D02*
D03*
X478790D02*
D03*
X377190D02*
D03*
X478790Y17780D02*
D03*
X377190D02*
D03*
X402590D02*
D03*
X427990D02*
D03*
X453390D02*
D03*
X554990D02*
D03*
X529590D02*
D03*
X504190D02*
D03*
X580390D02*
D03*
X656590D02*
D03*
X605790D02*
D03*
X631190D02*
D03*
X707390D02*
D03*
X681990D02*
D03*
X732790D02*
D03*
Y43180D02*
D03*
X681990D02*
D03*
X707390D02*
D03*
X631190Y482600D02*
D03*
X605790D02*
D03*
X656590D02*
D03*
X580390D02*
D03*
X504190D02*
D03*
X529590D02*
D03*
X554990D02*
D03*
X453390D02*
D03*
X427990D02*
D03*
X402590D02*
D03*
X478790D02*
D03*
X377190D02*
D03*
X478790Y457200D02*
D03*
X377190D02*
D03*
X402590D02*
D03*
X427990D02*
D03*
X453390D02*
D03*
X554990D02*
D03*
X529590D02*
D03*
X504190D02*
D03*
X580390D02*
D03*
X656590D02*
D03*
X605790D02*
D03*
X631190D02*
D03*
X707390D02*
D03*
X681990D02*
D03*
X732790D02*
D03*
Y482600D02*
D03*
X681990D02*
D03*
X707390D02*
D03*
D76*
X174244Y28448D02*
D03*
X148844D02*
D03*
X123444D02*
D03*
X825500Y400050D02*
D03*
Y298450D02*
D03*
Y323850D02*
D03*
Y349250D02*
D03*
Y374650D02*
D03*
X100330Y469900D02*
D03*
X125730D02*
D03*
X151130D02*
D03*
X176530D02*
D03*
X262890Y384810D02*
D03*
X288290D02*
D03*
X313690D02*
D03*
X339090D02*
D03*
D77*
X820000Y470000D02*
D03*
Y30000D02*
D03*
X30000D02*
D03*
Y470000D02*
D03*
D78*
X53420Y374360D02*
D03*
Y316560D02*
D03*
D79*
X58420Y388660D02*
D03*
Y302260D02*
D03*
D80*
X16620Y388660D02*
D03*
Y302260D02*
D03*
D81*
X245110Y339090D02*
D03*
D82*
X224790Y359410D02*
D03*
Y346710D02*
D03*
Y334010D02*
D03*
Y321310D02*
D03*
Y308610D02*
D03*
Y295910D02*
D03*
Y283210D02*
D03*
Y270510D02*
D03*
X164790Y359410D02*
D03*
Y346710D02*
D03*
Y334010D02*
D03*
Y321310D02*
D03*
Y308610D02*
D03*
Y295910D02*
D03*
Y283210D02*
D03*
Y270510D02*
D03*
D83*
X697230Y154940D02*
D03*
Y132080D02*
D03*
Y109220D02*
D03*
D84*
Y86360D02*
D03*
M02*
